<svg xmlns="http://www.w3.org/2000/svg" xmlns:xlink="http://www.w3.org/1999/xlink" width="1920" zoomAndPan="magnify" viewBox="0 0 1440 809.999993" height="1080" preserveAspectRatio="xMidYMid meet" version="1.0"><defs><g/><clipPath id="da66a4a87b"><path d="M 627.269531 379.941406 L 676.742188 379.941406 L 676.742188 429.417969 L 627.269531 429.417969 Z M 627.269531 379.941406 " clip-rule="nonzero"/></clipPath><clipPath id="87d5ac3dab"><path d="M 652.050781 379.941406 C 638.363281 379.941406 627.269531 391.039062 627.269531 404.726562 C 627.269531 418.414062 638.363281 429.511719 652.050781 429.511719 C 665.742188 429.511719 676.835938 418.414062 676.835938 404.726562 C 676.835938 391.039062 665.742188 379.941406 652.050781 379.941406 Z M 652.050781 417.195312 C 645.167969 417.195312 639.582031 411.613281 639.582031 404.726562 C 639.582031 397.839844 645.164062 392.257812 652.050781 392.257812 C 658.9375 392.257812 664.523438 397.839844 664.523438 404.726562 C 664.523438 411.613281 658.941406 417.195312 652.050781 417.195312 Z M 652.050781 417.195312 " clip-rule="nonzero"/></clipPath><linearGradient x1="-1.122695" gradientTransform="matrix(0.269138, 0, 0, 0.269138, 627.267821, 379.940777)" y1="1.150724" x2="184.949111" gradientUnits="userSpaceOnUse" y2="182.684297" id="844aea1a90"><stop stop-opacity="1" stop-color="rgb(100%, 53.69873%, 42.698669%)" offset="0"/><stop stop-opacity="1" stop-color="rgb(100%, 53.69873%, 42.698669%)" offset="0.125"/><stop stop-opacity="1" stop-color="rgb(100%, 53.69873%, 42.698669%)" offset="0.1875"/><stop stop-opacity="1" stop-color="rgb(99.957275%, 53.604126%, 42.630005%)" offset="0.21875"/><stop stop-opacity="1" stop-color="rgb(99.795532%, 53.244019%, 42.366028%)" offset="0.222656"/><stop stop-opacity="1" stop-color="rgb(99.67804%, 52.980042%, 42.172241%)" offset="0.226562"/><stop stop-opacity="1" stop-color="rgb(99.559021%, 52.714539%, 41.976929%)" offset="0.230469"/><stop stop-opacity="1" stop-color="rgb(99.441528%, 52.449036%, 41.783142%)" offset="0.234375"/><stop stop-opacity="1" stop-color="rgb(99.32251%, 52.183533%, 41.58783%)" offset="0.238281"/><stop stop-opacity="1" stop-color="rgb(99.203491%, 51.919556%, 41.394043%)" offset="0.242188"/><stop stop-opacity="1" stop-color="rgb(99.084473%, 51.654053%, 41.19873%)" offset="0.246094"/><stop stop-opacity="1" stop-color="rgb(98.96698%, 51.38855%, 41.004944%)" offset="0.25"/><stop stop-opacity="1" stop-color="rgb(98.847961%, 51.123047%, 40.809631%)" offset="0.253906"/><stop stop-opacity="1" stop-color="rgb(98.730469%, 50.857544%, 40.615845%)" offset="0.257812"/><stop stop-opacity="1" stop-color="rgb(98.61145%, 50.592041%, 40.422058%)" offset="0.261719"/><stop stop-opacity="1" stop-color="rgb(98.493958%, 50.328064%, 40.228271%)" offset="0.265625"/><stop stop-opacity="1" stop-color="rgb(98.374939%, 50.062561%, 40.032959%)" offset="0.269531"/><stop stop-opacity="1" stop-color="rgb(98.25592%, 49.797058%, 39.839172%)" offset="0.273438"/><stop stop-opacity="1" stop-color="rgb(98.136902%, 49.531555%, 39.64386%)" offset="0.277344"/><stop stop-opacity="1" stop-color="rgb(98.019409%, 49.266052%, 39.450073%)" offset="0.28125"/><stop stop-opacity="1" stop-color="rgb(97.900391%, 49.000549%, 39.254761%)" offset="0.285156"/><stop stop-opacity="1" stop-color="rgb(97.782898%, 48.736572%, 39.060974%)" offset="0.289063"/><stop stop-opacity="1" stop-color="rgb(97.663879%, 48.471069%, 38.865662%)" offset="0.292969"/><stop stop-opacity="1" stop-color="rgb(97.546387%, 48.205566%, 38.671875%)" offset="0.296875"/><stop stop-opacity="1" stop-color="rgb(97.427368%, 47.940063%, 38.476562%)" offset="0.300781"/><stop stop-opacity="1" stop-color="rgb(97.30835%, 47.674561%, 38.282776%)" offset="0.304688"/><stop stop-opacity="1" stop-color="rgb(97.189331%, 47.409058%, 38.088989%)" offset="0.308594"/><stop stop-opacity="1" stop-color="rgb(97.071838%, 47.145081%, 37.895203%)" offset="0.3125"/><stop stop-opacity="1" stop-color="rgb(96.95282%, 46.879578%, 37.69989%)" offset="0.316406"/><stop stop-opacity="1" stop-color="rgb(96.835327%, 46.614075%, 37.506104%)" offset="0.320312"/><stop stop-opacity="1" stop-color="rgb(96.716309%, 46.348572%, 37.310791%)" offset="0.324219"/><stop stop-opacity="1" stop-color="rgb(96.598816%, 46.083069%, 37.117004%)" offset="0.328125"/><stop stop-opacity="1" stop-color="rgb(96.479797%, 45.817566%, 36.921692%)" offset="0.332031"/><stop stop-opacity="1" stop-color="rgb(96.360779%, 45.553589%, 36.727905%)" offset="0.335938"/><stop stop-opacity="1" stop-color="rgb(96.24176%, 45.288086%, 36.532593%)" offset="0.339844"/><stop stop-opacity="1" stop-color="rgb(96.124268%, 45.022583%, 36.338806%)" offset="0.34375"/><stop stop-opacity="1" stop-color="rgb(96.005249%, 44.75708%, 36.14502%)" offset="0.347656"/><stop stop-opacity="1" stop-color="rgb(95.887756%, 44.493103%, 35.951233%)" offset="0.351563"/><stop stop-opacity="1" stop-color="rgb(95.768738%, 44.2276%, 35.75592%)" offset="0.355469"/><stop stop-opacity="1" stop-color="rgb(95.651245%, 43.962097%, 35.562134%)" offset="0.359375"/><stop stop-opacity="1" stop-color="rgb(95.532227%, 43.696594%, 35.366821%)" offset="0.363281"/><stop stop-opacity="1" stop-color="rgb(95.413208%, 43.431091%, 35.173035%)" offset="0.367188"/><stop stop-opacity="1" stop-color="rgb(95.294189%, 43.165588%, 34.977722%)" offset="0.371094"/><stop stop-opacity="1" stop-color="rgb(95.176697%, 42.901611%, 34.783936%)" offset="0.375"/><stop stop-opacity="1" stop-color="rgb(95.057678%, 42.636108%, 34.588623%)" offset="0.378906"/><stop stop-opacity="1" stop-color="rgb(94.940186%, 42.370605%, 34.394836%)" offset="0.382813"/><stop stop-opacity="1" stop-color="rgb(94.821167%, 42.105103%, 34.199524%)" offset="0.386719"/><stop stop-opacity="1" stop-color="rgb(94.703674%, 41.8396%, 34.005737%)" offset="0.390625"/><stop stop-opacity="1" stop-color="rgb(94.584656%, 41.574097%, 33.811951%)" offset="0.394531"/><stop stop-opacity="1" stop-color="rgb(94.465637%, 41.31012%, 33.618164%)" offset="0.398438"/><stop stop-opacity="1" stop-color="rgb(94.346619%, 41.044617%, 33.422852%)" offset="0.402344"/><stop stop-opacity="1" stop-color="rgb(94.229126%, 40.779114%, 33.229065%)" offset="0.40625"/><stop stop-opacity="1" stop-color="rgb(94.110107%, 40.513611%, 33.033752%)" offset="0.410156"/><stop stop-opacity="1" stop-color="rgb(93.992615%, 40.248108%, 32.839966%)" offset="0.414063"/><stop stop-opacity="1" stop-color="rgb(93.873596%, 39.982605%, 32.644653%)" offset="0.417969"/><stop stop-opacity="1" stop-color="rgb(93.756104%, 39.718628%, 32.450867%)" offset="0.421875"/><stop stop-opacity="1" stop-color="rgb(93.637085%, 39.453125%, 32.255554%)" offset="0.425781"/><stop stop-opacity="1" stop-color="rgb(93.518066%, 39.187622%, 32.061768%)" offset="0.429688"/><stop stop-opacity="1" stop-color="rgb(93.399048%, 38.922119%, 31.867981%)" offset="0.433594"/><stop stop-opacity="1" stop-color="rgb(93.281555%, 38.658142%, 31.674194%)" offset="0.4375"/><stop stop-opacity="1" stop-color="rgb(93.162537%, 38.392639%, 31.478882%)" offset="0.441406"/><stop stop-opacity="1" stop-color="rgb(93.045044%, 38.127136%, 31.285095%)" offset="0.445312"/><stop stop-opacity="1" stop-color="rgb(92.926025%, 37.861633%, 31.089783%)" offset="0.449219"/><stop stop-opacity="1" stop-color="rgb(92.807007%, 37.59613%, 30.895996%)" offset="0.453125"/><stop stop-opacity="1" stop-color="rgb(92.687988%, 37.330627%, 30.700684%)" offset="0.457031"/><stop stop-opacity="1" stop-color="rgb(92.570496%, 37.06665%, 30.506897%)" offset="0.460938"/><stop stop-opacity="1" stop-color="rgb(92.451477%, 36.801147%, 30.311584%)" offset="0.464844"/><stop stop-opacity="1" stop-color="rgb(92.333984%, 36.535645%, 30.117798%)" offset="0.46875"/><stop stop-opacity="1" stop-color="rgb(92.214966%, 36.270142%, 29.922485%)" offset="0.472656"/><stop stop-opacity="1" stop-color="rgb(92.097473%, 36.004639%, 29.728699%)" offset="0.476562"/><stop stop-opacity="1" stop-color="rgb(91.978455%, 35.739136%, 29.534912%)" offset="0.480469"/><stop stop-opacity="1" stop-color="rgb(91.859436%, 35.475159%, 29.341125%)" offset="0.484375"/><stop stop-opacity="1" stop-color="rgb(91.740417%, 35.209656%, 29.145813%)" offset="0.488281"/><stop stop-opacity="1" stop-color="rgb(91.622925%, 34.944153%, 28.952026%)" offset="0.492188"/><stop stop-opacity="1" stop-color="rgb(91.503906%, 34.67865%, 28.756714%)" offset="0.496094"/><stop stop-opacity="1" stop-color="rgb(91.386414%, 34.413147%, 28.562927%)" offset="0.5"/><stop stop-opacity="1" stop-color="rgb(91.267395%, 34.147644%, 28.367615%)" offset="0.503906"/><stop stop-opacity="1" stop-color="rgb(91.149902%, 33.883667%, 28.173828%)" offset="0.507813"/><stop stop-opacity="1" stop-color="rgb(91.030884%, 33.618164%, 27.978516%)" offset="0.511719"/><stop stop-opacity="1" stop-color="rgb(90.911865%, 33.352661%, 27.784729%)" offset="0.515625"/><stop stop-opacity="1" stop-color="rgb(90.792847%, 33.087158%, 27.589417%)" offset="0.519531"/><stop stop-opacity="1" stop-color="rgb(90.675354%, 32.823181%, 27.39563%)" offset="0.523438"/><stop stop-opacity="1" stop-color="rgb(90.556335%, 32.557678%, 27.201843%)" offset="0.527344"/><stop stop-opacity="1" stop-color="rgb(90.438843%, 32.292175%, 27.008057%)" offset="0.53125"/><stop stop-opacity="1" stop-color="rgb(90.319824%, 32.026672%, 26.812744%)" offset="0.535156"/><stop stop-opacity="1" stop-color="rgb(90.202332%, 31.761169%, 26.618958%)" offset="0.539062"/><stop stop-opacity="1" stop-color="rgb(90.083313%, 31.495667%, 26.423645%)" offset="0.542969"/><stop stop-opacity="1" stop-color="rgb(89.964294%, 31.231689%, 26.229858%)" offset="0.546875"/><stop stop-opacity="1" stop-color="rgb(89.845276%, 30.966187%, 26.034546%)" offset="0.550781"/><stop stop-opacity="1" stop-color="rgb(89.727783%, 30.700684%, 25.840759%)" offset="0.554688"/><stop stop-opacity="1" stop-color="rgb(89.608765%, 30.435181%, 25.645447%)" offset="0.558594"/><stop stop-opacity="1" stop-color="rgb(89.491272%, 30.169678%, 25.45166%)" offset="0.5625"/><stop stop-opacity="1" stop-color="rgb(89.372253%, 29.904175%, 25.257874%)" offset="0.566406"/><stop stop-opacity="1" stop-color="rgb(89.254761%, 29.640198%, 25.064087%)" offset="0.570313"/><stop stop-opacity="1" stop-color="rgb(89.135742%, 29.374695%, 24.868774%)" offset="0.574219"/><stop stop-opacity="1" stop-color="rgb(89.016724%, 29.109192%, 24.674988%)" offset="0.578125"/><stop stop-opacity="1" stop-color="rgb(88.897705%, 28.843689%, 24.479675%)" offset="0.582031"/><stop stop-opacity="1" stop-color="rgb(88.780212%, 28.578186%, 24.285889%)" offset="0.585938"/><stop stop-opacity="1" stop-color="rgb(88.661194%, 28.312683%, 24.090576%)" offset="0.589844"/><stop stop-opacity="1" stop-color="rgb(88.543701%, 28.048706%, 23.89679%)" offset="0.59375"/><stop stop-opacity="1" stop-color="rgb(88.424683%, 27.783203%, 23.701477%)" offset="0.597656"/><stop stop-opacity="1" stop-color="rgb(88.30719%, 27.5177%, 23.50769%)" offset="0.601563"/><stop stop-opacity="1" stop-color="rgb(88.188171%, 27.252197%, 23.312378%)" offset="0.605469"/><stop stop-opacity="1" stop-color="rgb(88.069153%, 26.986694%, 23.118591%)" offset="0.609375"/><stop stop-opacity="1" stop-color="rgb(87.950134%, 26.721191%, 22.924805%)" offset="0.613281"/><stop stop-opacity="1" stop-color="rgb(87.832642%, 26.457214%, 22.731018%)" offset="0.617188"/><stop stop-opacity="1" stop-color="rgb(87.713623%, 26.191711%, 22.535706%)" offset="0.621094"/><stop stop-opacity="1" stop-color="rgb(87.59613%, 25.926208%, 22.341919%)" offset="0.625"/><stop stop-opacity="1" stop-color="rgb(87.477112%, 25.660706%, 22.146606%)" offset="0.628906"/><stop stop-opacity="1" stop-color="rgb(87.359619%, 25.396729%, 21.95282%)" offset="0.632813"/><stop stop-opacity="1" stop-color="rgb(87.240601%, 25.131226%, 21.757507%)" offset="0.636719"/><stop stop-opacity="1" stop-color="rgb(87.121582%, 24.865723%, 21.563721%)" offset="0.640625"/><stop stop-opacity="1" stop-color="rgb(87.002563%, 24.60022%, 21.368408%)" offset="0.644531"/><stop stop-opacity="1" stop-color="rgb(86.885071%, 24.334717%, 21.174622%)" offset="0.648438"/><stop stop-opacity="1" stop-color="rgb(86.766052%, 24.069214%, 20.979309%)" offset="0.652344"/><stop stop-opacity="1" stop-color="rgb(86.64856%, 23.805237%, 20.785522%)" offset="0.65625"/><stop stop-opacity="1" stop-color="rgb(86.529541%, 23.539734%, 20.591736%)" offset="0.660156"/><stop stop-opacity="1" stop-color="rgb(86.412048%, 23.274231%, 20.397949%)" offset="0.664063"/><stop stop-opacity="1" stop-color="rgb(86.29303%, 23.008728%, 20.202637%)" offset="0.667969"/><stop stop-opacity="1" stop-color="rgb(86.174011%, 22.743225%, 20.00885%)" offset="0.671875"/><stop stop-opacity="1" stop-color="rgb(86.054993%, 22.477722%, 19.813538%)" offset="0.675781"/><stop stop-opacity="1" stop-color="rgb(85.9375%, 22.213745%, 19.619751%)" offset="0.679688"/><stop stop-opacity="1" stop-color="rgb(85.818481%, 21.948242%, 19.424438%)" offset="0.683594"/><stop stop-opacity="1" stop-color="rgb(85.700989%, 21.682739%, 19.230652%)" offset="0.6875"/><stop stop-opacity="1" stop-color="rgb(85.58197%, 21.417236%, 19.035339%)" offset="0.691406"/><stop stop-opacity="1" stop-color="rgb(85.464478%, 21.151733%, 18.841553%)" offset="0.695313"/><stop stop-opacity="1" stop-color="rgb(85.345459%, 20.88623%, 18.647766%)" offset="0.699219"/><stop stop-opacity="1" stop-color="rgb(85.22644%, 20.622253%, 18.453979%)" offset="0.703125"/><stop stop-opacity="1" stop-color="rgb(85.107422%, 20.35675%, 18.258667%)" offset="0.707031"/><stop stop-opacity="1" stop-color="rgb(84.989929%, 20.091248%, 18.06488%)" offset="0.710938"/><stop stop-opacity="1" stop-color="rgb(84.870911%, 19.825745%, 17.869568%)" offset="0.714844"/><stop stop-opacity="1" stop-color="rgb(84.753418%, 19.561768%, 17.675781%)" offset="0.71875"/><stop stop-opacity="1" stop-color="rgb(84.634399%, 19.296265%, 17.480469%)" offset="0.722656"/><stop stop-opacity="1" stop-color="rgb(84.516907%, 19.030762%, 17.286682%)" offset="0.726563"/><stop stop-opacity="1" stop-color="rgb(84.397888%, 18.765259%, 17.09137%)" offset="0.730469"/><stop stop-opacity="1" stop-color="rgb(84.27887%, 18.499756%, 16.897583%)" offset="0.734375"/><stop stop-opacity="1" stop-color="rgb(84.159851%, 18.234253%, 16.702271%)" offset="0.738281"/><stop stop-opacity="1" stop-color="rgb(84.042358%, 17.970276%, 16.508484%)" offset="0.742188"/><stop stop-opacity="1" stop-color="rgb(83.92334%, 17.704773%, 16.314697%)" offset="0.746094"/><stop stop-opacity="1" stop-color="rgb(83.805847%, 17.43927%, 16.120911%)" offset="0.75"/><stop stop-opacity="1" stop-color="rgb(83.686829%, 17.173767%, 15.925598%)" offset="0.753906"/><stop stop-opacity="1" stop-color="rgb(83.56781%, 16.908264%, 15.731812%)" offset="0.757813"/><stop stop-opacity="1" stop-color="rgb(83.448792%, 16.642761%, 15.536499%)" offset="0.761719"/><stop stop-opacity="1" stop-color="rgb(83.331299%, 16.378784%, 15.342712%)" offset="0.765625"/><stop stop-opacity="1" stop-color="rgb(83.21228%, 16.113281%, 15.1474%)" offset="0.769531"/><stop stop-opacity="1" stop-color="rgb(83.094788%, 15.847778%, 14.953613%)" offset="0.773438"/><stop stop-opacity="1" stop-color="rgb(82.975769%, 15.582275%, 14.758301%)" offset="0.777344"/><stop stop-opacity="1" stop-color="rgb(82.858276%, 15.316772%, 14.564514%)" offset="0.78125"/><stop stop-opacity="1" stop-color="rgb(82.739258%, 15.05127%, 14.370728%)" offset="0.785156"/><stop stop-opacity="1" stop-color="rgb(82.620239%, 14.787292%, 14.176941%)" offset="0.789062"/><stop stop-opacity="1" stop-color="rgb(82.501221%, 14.52179%, 13.981628%)" offset="0.792969"/><stop stop-opacity="1" stop-color="rgb(82.383728%, 14.256287%, 13.787842%)" offset="0.796875"/><stop stop-opacity="1" stop-color="rgb(82.264709%, 13.990784%, 13.592529%)" offset="0.800781"/><stop stop-opacity="1" stop-color="rgb(82.147217%, 13.726807%, 13.398743%)" offset="0.804688"/><stop stop-opacity="1" stop-color="rgb(82.028198%, 13.461304%, 13.20343%)" offset="0.808594"/><stop stop-opacity="1" stop-color="rgb(81.910706%, 13.195801%, 13.009644%)" offset="0.8125"/><stop stop-opacity="1" stop-color="rgb(81.791687%, 12.930298%, 12.814331%)" offset="0.816406"/><stop stop-opacity="1" stop-color="rgb(81.672668%, 12.664795%, 12.620544%)" offset="0.820313"/><stop stop-opacity="1" stop-color="rgb(81.636047%, 12.582397%, 12.559509%)" offset="0.828125"/><stop stop-opacity="1" stop-color="rgb(81.599426%, 12.5%, 12.5%)" offset="0.84375"/><stop stop-opacity="1" stop-color="rgb(81.599426%, 12.5%, 12.5%)" offset="0.875"/><stop stop-opacity="1" stop-color="rgb(81.599426%, 12.5%, 12.5%)" offset="1"/></linearGradient></defs><g clip-path="url(#da66a4a87b)"><g clip-path="url(#87d5ac3dab)"><path fill="url(#844aea1a90)" d="M 627.269531 379.941406 L 627.269531 429.417969 L 676.742188 429.417969 L 676.742188 379.941406 Z M 627.269531 379.941406 " fill-rule="nonzero"/></g></g><g fill="#ffffff" fill-opacity="1"><g transform="translate(682.292132, 414.271344)"><g><path d="M 8.6875 0.21875 C 7.1875 0.21875 5.835938 -0.09375 4.640625 -0.71875 C 3.453125 -1.351562 2.519531 -2.222656 1.84375 -3.328125 C 1.175781 -4.441406 0.84375 -5.707031 0.84375 -7.125 C 0.84375 -8.539062 1.175781 -9.800781 1.84375 -10.90625 C 2.519531 -12.019531 3.453125 -12.890625 4.640625 -13.515625 C 5.835938 -14.140625 7.1875 -14.453125 8.6875 -14.453125 C 10.1875 -14.453125 11.523438 -14.140625 12.703125 -13.515625 C 13.890625 -12.890625 14.816406 -12.019531 15.484375 -10.90625 C 16.160156 -9.800781 16.5 -8.539062 16.5 -7.125 C 16.5 -5.707031 16.160156 -4.441406 15.484375 -3.328125 C 14.816406 -2.222656 13.890625 -1.351562 12.703125 -0.71875 C 11.523438 -0.09375 10.1875 0.21875 8.6875 0.21875 Z M 8.6875 -3.171875 C 9.75 -3.171875 10.617188 -3.53125 11.296875 -4.25 C 11.972656 -4.96875 12.3125 -5.925781 12.3125 -7.125 C 12.3125 -8.320312 11.972656 -9.28125 11.296875 -10 C 10.617188 -10.71875 9.75 -11.078125 8.6875 -11.078125 C 7.625 -11.078125 6.75 -10.71875 6.0625 -10 C 5.375 -9.28125 5.03125 -8.320312 5.03125 -7.125 C 5.03125 -5.925781 5.375 -4.96875 6.0625 -4.25 C 6.75 -3.53125 7.625 -3.171875 8.6875 -3.171875 Z M 8.6875 -3.171875 "/></g></g></g><g fill="#ffffff" fill-opacity="1"><g transform="translate(699.63837, 414.271344)"><g><path d="M 8.6875 0.21875 C 7.1875 0.21875 5.835938 -0.09375 4.640625 -0.71875 C 3.453125 -1.351562 2.519531 -2.222656 1.84375 -3.328125 C 1.175781 -4.441406 0.84375 -5.707031 0.84375 -7.125 C 0.84375 -8.539062 1.175781 -9.800781 1.84375 -10.90625 C 2.519531 -12.019531 3.453125 -12.890625 4.640625 -13.515625 C 5.835938 -14.140625 7.1875 -14.453125 8.6875 -14.453125 C 10.1875 -14.453125 11.523438 -14.140625 12.703125 -13.515625 C 13.890625 -12.890625 14.816406 -12.019531 15.484375 -10.90625 C 16.160156 -9.800781 16.5 -8.539062 16.5 -7.125 C 16.5 -5.707031 16.160156 -4.441406 15.484375 -3.328125 C 14.816406 -2.222656 13.890625 -1.351562 12.703125 -0.71875 C 11.523438 -0.09375 10.1875 0.21875 8.6875 0.21875 Z M 8.6875 -3.171875 C 9.75 -3.171875 10.617188 -3.53125 11.296875 -4.25 C 11.972656 -4.96875 12.3125 -5.925781 12.3125 -7.125 C 12.3125 -8.320312 11.972656 -9.28125 11.296875 -10 C 10.617188 -10.71875 9.75 -11.078125 8.6875 -11.078125 C 7.625 -11.078125 6.75 -10.71875 6.0625 -10 C 5.375 -9.28125 5.03125 -8.320312 5.03125 -7.125 C 5.03125 -5.925781 5.375 -4.96875 6.0625 -4.25 C 6.75 -3.53125 7.625 -3.171875 8.6875 -3.171875 Z M 8.6875 -3.171875 "/></g></g></g><g fill="#ffffff" fill-opacity="1"><g transform="translate(716.984607, 414.271344)"><g><path d="M 16.046875 -14.25 L 9.609375 0.875 C 8.960938 2.519531 8.15625 3.675781 7.1875 4.34375 C 6.226562 5.007812 5.066406 5.34375 3.703125 5.34375 C 2.960938 5.34375 2.226562 5.226562 1.5 5 C 0.78125 4.769531 0.191406 4.453125 -0.265625 4.046875 L 1.25 1.109375 C 1.5625 1.390625 1.925781 1.609375 2.34375 1.765625 C 2.757812 1.929688 3.171875 2.015625 3.578125 2.015625 C 4.140625 2.015625 4.597656 1.875 4.953125 1.59375 C 5.304688 1.320312 5.625 0.867188 5.90625 0.234375 L 5.953125 0.109375 L -0.21875 -14.25 L 4.046875 -14.25 L 8.046875 -4.578125 L 12.078125 -14.25 Z M 16.046875 -14.25 "/></g></g></g><g fill="#ffffff" fill-opacity="1"><g transform="translate(732.821321, 414.271344)"><g><path d="M 15.859375 -7.078125 C 15.859375 -7.015625 15.832031 -6.640625 15.78125 -5.953125 L 5 -5.953125 C 5.195312 -5.078125 5.65625 -4.378906 6.375 -3.859375 C 7.101562 -3.347656 8.003906 -3.09375 9.078125 -3.09375 C 9.828125 -3.09375 10.488281 -3.203125 11.0625 -3.421875 C 11.632812 -3.648438 12.164062 -4 12.65625 -4.46875 L 14.859375 -2.09375 C 13.515625 -0.550781 11.554688 0.21875 8.984375 0.21875 C 7.367188 0.21875 5.941406 -0.09375 4.703125 -0.71875 C 3.472656 -1.351562 2.519531 -2.222656 1.84375 -3.328125 C 1.175781 -4.441406 0.84375 -5.707031 0.84375 -7.125 C 0.84375 -8.519531 1.171875 -9.773438 1.828125 -10.890625 C 2.492188 -12.015625 3.40625 -12.890625 4.5625 -13.515625 C 5.71875 -14.140625 7.015625 -14.453125 8.453125 -14.453125 C 9.847656 -14.453125 11.109375 -14.148438 12.234375 -13.546875 C 13.367188 -12.953125 14.253906 -12.09375 14.890625 -10.96875 C 15.535156 -9.851562 15.859375 -8.554688 15.859375 -7.078125 Z M 8.46875 -11.328125 C 7.539062 -11.328125 6.757812 -11.0625 6.125 -10.53125 C 5.488281 -10.007812 5.097656 -9.289062 4.953125 -8.375 L 11.96875 -8.375 C 11.832031 -9.269531 11.445312 -9.984375 10.8125 -10.515625 C 10.175781 -11.054688 9.394531 -11.328125 8.46875 -11.328125 Z M 8.46875 -11.328125 "/></g></g></g><g fill="#ffffff" fill-opacity="1"><g transform="translate(749.531969, 414.271344)"><g><path d="M 3.46875 0.21875 C 2.75 0.21875 2.140625 -0.0234375 1.640625 -0.515625 C 1.148438 -1.015625 0.90625 -1.640625 0.90625 -2.390625 C 0.90625 -3.140625 1.148438 -3.75 1.640625 -4.21875 C 2.140625 -4.6875 2.75 -4.921875 3.46875 -4.921875 C 4.195312 -4.921875 4.804688 -4.6875 5.296875 -4.21875 C 5.785156 -3.75 6.03125 -3.140625 6.03125 -2.390625 C 6.03125 -1.640625 5.785156 -1.015625 5.296875 -0.515625 C 4.804688 -0.0234375 4.195312 0.21875 3.46875 0.21875 Z M 3.46875 0.21875 "/></g></g></g><g fill="#ffffff" fill-opacity="1"><g transform="translate(756.470465, 414.271344)"><g><path d="M 1.90625 -19.65625 L 6.03125 -19.65625 L 6.03125 0 L 1.90625 0 Z M 1.90625 -19.65625 "/></g></g></g><g fill="#ffffff" fill-opacity="1"><g transform="translate(764.441789, 414.271344)"><g><path d="M 7.65625 -14.453125 C 9.863281 -14.453125 11.554688 -13.925781 12.734375 -12.875 C 13.921875 -11.832031 14.515625 -10.25 14.515625 -8.125 L 14.515625 0 L 10.640625 0 L 10.640625 -1.78125 C 9.867188 -0.445312 8.421875 0.21875 6.296875 0.21875 C 5.203125 0.21875 4.253906 0.03125 3.453125 -0.34375 C 2.648438 -0.71875 2.035156 -1.226562 1.609375 -1.875 C 1.191406 -2.53125 0.984375 -3.273438 0.984375 -4.109375 C 0.984375 -5.429688 1.476562 -6.472656 2.46875 -7.234375 C 3.46875 -7.992188 5.007812 -8.375 7.09375 -8.375 L 10.375 -8.375 C 10.375 -9.269531 10.097656 -9.957031 9.546875 -10.4375 C 9.003906 -10.925781 8.1875 -11.171875 7.09375 -11.171875 C 6.332031 -11.171875 5.585938 -11.050781 4.859375 -10.8125 C 4.128906 -10.582031 3.507812 -10.265625 3 -9.859375 L 1.515625 -12.734375 C 2.285156 -13.285156 3.210938 -13.707031 4.296875 -14 C 5.390625 -14.300781 6.507812 -14.453125 7.65625 -14.453125 Z M 7.34375 -2.5625 C 8.039062 -2.5625 8.660156 -2.722656 9.203125 -3.046875 C 9.753906 -3.378906 10.144531 -3.863281 10.375 -4.5 L 10.375 -5.953125 L 7.546875 -5.953125 C 5.847656 -5.953125 5 -5.398438 5 -4.296875 C 5 -3.765625 5.207031 -3.34375 5.625 -3.03125 C 6.039062 -2.71875 6.613281 -2.5625 7.34375 -2.5625 Z M 7.34375 -2.5625 "/></g></g></g><g fill="#ffffff" fill-opacity="1"><g transform="translate(780.781676, 414.271344)"><g><path d="M 10.328125 -14.453125 C 11.648438 -14.453125 12.851562 -14.148438 13.9375 -13.546875 C 15.03125 -12.941406 15.882812 -12.085938 16.5 -10.984375 C 17.113281 -9.878906 17.421875 -8.59375 17.421875 -7.125 C 17.421875 -5.65625 17.113281 -4.367188 16.5 -3.265625 C 15.882812 -2.160156 15.03125 -1.300781 13.9375 -0.6875 C 12.851562 -0.0820312 11.648438 0.21875 10.328125 0.21875 C 8.367188 0.21875 6.878906 -0.398438 5.859375 -1.640625 L 5.859375 0 L 1.90625 0 L 1.90625 -19.65625 L 6.03125 -19.65625 L 6.03125 -12.734375 C 7.070312 -13.878906 8.503906 -14.453125 10.328125 -14.453125 Z M 9.609375 -3.171875 C 10.671875 -3.171875 11.539062 -3.53125 12.21875 -4.25 C 12.90625 -4.96875 13.25 -5.925781 13.25 -7.125 C 13.25 -8.320312 12.90625 -9.28125 12.21875 -10 C 11.539062 -10.71875 10.671875 -11.078125 9.609375 -11.078125 C 8.554688 -11.078125 7.6875 -10.71875 7 -10 C 6.320312 -9.28125 5.984375 -8.320312 5.984375 -7.125 C 5.984375 -5.925781 6.320312 -4.96875 7 -4.25 C 7.6875 -3.53125 8.554688 -3.171875 9.609375 -3.171875 Z M 9.609375 -3.171875 "/></g></g></g><g fill="#ffffff" fill-opacity="1"><g transform="translate(799.054801, 414.271344)"><g><path d="M 6.703125 0.21875 C 5.515625 0.21875 4.351562 0.0703125 3.21875 -0.21875 C 2.09375 -0.507812 1.195312 -0.878906 0.53125 -1.328125 L 1.90625 -4.296875 C 2.539062 -3.890625 3.304688 -3.554688 4.203125 -3.296875 C 5.109375 -3.035156 5.992188 -2.90625 6.859375 -2.90625 C 8.609375 -2.90625 9.484375 -3.34375 9.484375 -4.21875 C 9.484375 -4.613281 9.242188 -4.898438 8.765625 -5.078125 C 8.285156 -5.253906 7.550781 -5.40625 6.5625 -5.53125 C 5.394531 -5.707031 4.429688 -5.910156 3.671875 -6.140625 C 2.921875 -6.367188 2.265625 -6.773438 1.703125 -7.359375 C 1.148438 -7.941406 0.875 -8.773438 0.875 -9.859375 C 0.875 -10.753906 1.132812 -11.550781 1.65625 -12.25 C 2.175781 -12.945312 2.929688 -13.488281 3.921875 -13.875 C 4.921875 -14.257812 6.101562 -14.453125 7.46875 -14.453125 C 8.476562 -14.453125 9.476562 -14.34375 10.46875 -14.125 C 11.46875 -13.90625 12.296875 -13.601562 12.953125 -13.21875 L 11.578125 -10.28125 C 10.316406 -10.976562 8.945312 -11.328125 7.46875 -11.328125 C 6.582031 -11.328125 5.914062 -11.203125 5.46875 -10.953125 C 5.03125 -10.710938 4.8125 -10.398438 4.8125 -10.015625 C 4.8125 -9.566406 5.050781 -9.253906 5.53125 -9.078125 C 6.007812 -8.898438 6.769531 -8.734375 7.8125 -8.578125 C 8.976562 -8.390625 9.929688 -8.179688 10.671875 -7.953125 C 11.410156 -7.734375 12.050781 -7.332031 12.59375 -6.75 C 13.144531 -6.164062 13.421875 -5.351562 13.421875 -4.3125 C 13.421875 -3.4375 13.15625 -2.648438 12.625 -1.953125 C 12.101562 -1.265625 11.332031 -0.726562 10.3125 -0.34375 C 9.300781 0.03125 8.097656 0.21875 6.703125 0.21875 Z M 6.703125 0.21875 "/></g></g></g></svg>