<svg xmlns="http://www.w3.org/2000/svg" xmlns:xlink="http://www.w3.org/1999/xlink" width="160" zoomAndPan="magnify" viewBox="0 0 120 30.000001" height="40" preserveAspectRatio="xMidYMid meet" version="1.0"><defs><g/><clipPath id="8f56774d98"><path d="M 33.753906 7.515625 L 47.726562 7.515625 L 47.726562 21.488281 L 33.753906 21.488281 Z M 33.753906 7.515625 " clip-rule="nonzero"/></clipPath><clipPath id="46ad288b14"><path d="M 40.753906 7.515625 C 36.886719 7.515625 33.753906 10.648438 33.753906 14.515625 C 33.753906 18.382812 36.886719 21.515625 40.753906 21.515625 C 44.621094 21.515625 47.753906 18.382812 47.753906 14.515625 C 47.753906 10.648438 44.621094 7.515625 40.753906 7.515625 Z M 40.753906 18.035156 C 38.808594 18.035156 37.230469 16.460938 37.230469 14.515625 C 37.230469 12.570312 38.808594 10.992188 40.753906 10.992188 C 42.699219 10.992188 44.273438 12.570312 44.273438 14.515625 C 44.273438 16.460938 42.699219 18.035156 40.753906 18.035156 Z M 40.753906 18.035156 " clip-rule="nonzero"/></clipPath><linearGradient x1="-1.122661" gradientTransform="matrix(0.0760135, 0, 0, 0.0760135, 33.753258, 7.514912)" y1="1.150756" x2="184.949161" gradientUnits="userSpaceOnUse" y2="182.684346" id="0038f3f655"><stop stop-opacity="1" stop-color="rgb(100%, 53.69873%, 42.698669%)" offset="0"/><stop stop-opacity="1" stop-color="rgb(100%, 53.69873%, 42.698669%)" offset="0.125"/><stop stop-opacity="1" stop-color="rgb(100%, 53.69873%, 42.698669%)" offset="0.1875"/><stop stop-opacity="1" stop-color="rgb(99.957275%, 53.604126%, 42.630005%)" offset="0.21875"/><stop stop-opacity="1" stop-color="rgb(99.795532%, 53.244019%, 42.366028%)" offset="0.222656"/><stop stop-opacity="1" stop-color="rgb(99.67804%, 52.980042%, 42.172241%)" offset="0.226562"/><stop stop-opacity="1" stop-color="rgb(99.559021%, 52.714539%, 41.976929%)" offset="0.230469"/><stop stop-opacity="1" stop-color="rgb(99.441528%, 52.449036%, 41.783142%)" offset="0.234375"/><stop stop-opacity="1" stop-color="rgb(99.32251%, 52.183533%, 41.58783%)" offset="0.238281"/><stop stop-opacity="1" stop-color="rgb(99.203491%, 51.91803%, 41.394043%)" offset="0.242188"/><stop stop-opacity="1" stop-color="rgb(99.084473%, 51.652527%, 41.19873%)" offset="0.246094"/><stop stop-opacity="1" stop-color="rgb(98.96698%, 51.38855%, 41.004944%)" offset="0.25"/><stop stop-opacity="1" stop-color="rgb(98.847961%, 51.123047%, 40.809631%)" offset="0.253906"/><stop stop-opacity="1" stop-color="rgb(98.730469%, 50.857544%, 40.615845%)" offset="0.257812"/><stop stop-opacity="1" stop-color="rgb(98.61145%, 50.592041%, 40.422058%)" offset="0.261719"/><stop stop-opacity="1" stop-color="rgb(98.493958%, 50.328064%, 40.228271%)" offset="0.265625"/><stop stop-opacity="1" stop-color="rgb(98.374939%, 50.062561%, 40.032959%)" offset="0.269531"/><stop stop-opacity="1" stop-color="rgb(98.25592%, 49.797058%, 39.839172%)" offset="0.273438"/><stop stop-opacity="1" stop-color="rgb(98.136902%, 49.531555%, 39.64386%)" offset="0.277344"/><stop stop-opacity="1" stop-color="rgb(98.019409%, 49.266052%, 39.450073%)" offset="0.28125"/><stop stop-opacity="1" stop-color="rgb(97.900391%, 49.000549%, 39.254761%)" offset="0.285156"/><stop stop-opacity="1" stop-color="rgb(97.782898%, 48.736572%, 39.060974%)" offset="0.289062"/><stop stop-opacity="1" stop-color="rgb(97.663879%, 48.471069%, 38.865662%)" offset="0.292969"/><stop stop-opacity="1" stop-color="rgb(97.546387%, 48.205566%, 38.671875%)" offset="0.296875"/><stop stop-opacity="1" stop-color="rgb(97.427368%, 47.940063%, 38.476562%)" offset="0.300781"/><stop stop-opacity="1" stop-color="rgb(97.30835%, 47.674561%, 38.282776%)" offset="0.304688"/><stop stop-opacity="1" stop-color="rgb(97.189331%, 47.409058%, 38.088989%)" offset="0.308594"/><stop stop-opacity="1" stop-color="rgb(97.071838%, 47.145081%, 37.895203%)" offset="0.3125"/><stop stop-opacity="1" stop-color="rgb(96.95282%, 46.879578%, 37.69989%)" offset="0.316406"/><stop stop-opacity="1" stop-color="rgb(96.835327%, 46.614075%, 37.506104%)" offset="0.320312"/><stop stop-opacity="1" stop-color="rgb(96.716309%, 46.348572%, 37.310791%)" offset="0.324219"/><stop stop-opacity="1" stop-color="rgb(96.598816%, 46.083069%, 37.117004%)" offset="0.328125"/><stop stop-opacity="1" stop-color="rgb(96.479797%, 45.817566%, 36.921692%)" offset="0.332031"/><stop stop-opacity="1" stop-color="rgb(96.360779%, 45.553589%, 36.727905%)" offset="0.335938"/><stop stop-opacity="1" stop-color="rgb(96.24176%, 45.288086%, 36.532593%)" offset="0.339844"/><stop stop-opacity="1" stop-color="rgb(96.124268%, 45.022583%, 36.338806%)" offset="0.34375"/><stop stop-opacity="1" stop-color="rgb(96.005249%, 44.75708%, 36.14502%)" offset="0.347656"/><stop stop-opacity="1" stop-color="rgb(95.887756%, 44.493103%, 35.951233%)" offset="0.351562"/><stop stop-opacity="1" stop-color="rgb(95.768738%, 44.2276%, 35.75592%)" offset="0.355469"/><stop stop-opacity="1" stop-color="rgb(95.651245%, 43.962097%, 35.562134%)" offset="0.359375"/><stop stop-opacity="1" stop-color="rgb(95.532227%, 43.696594%, 35.366821%)" offset="0.363281"/><stop stop-opacity="1" stop-color="rgb(95.413208%, 43.431091%, 35.173035%)" offset="0.367188"/><stop stop-opacity="1" stop-color="rgb(95.294189%, 43.165588%, 34.977722%)" offset="0.371094"/><stop stop-opacity="1" stop-color="rgb(95.176697%, 42.901611%, 34.783936%)" offset="0.375"/><stop stop-opacity="1" stop-color="rgb(95.057678%, 42.636108%, 34.588623%)" offset="0.378906"/><stop stop-opacity="1" stop-color="rgb(94.940186%, 42.370605%, 34.394836%)" offset="0.382812"/><stop stop-opacity="1" stop-color="rgb(94.821167%, 42.105103%, 34.199524%)" offset="0.386719"/><stop stop-opacity="1" stop-color="rgb(94.703674%, 41.8396%, 34.005737%)" offset="0.390625"/><stop stop-opacity="1" stop-color="rgb(94.584656%, 41.574097%, 33.811951%)" offset="0.394531"/><stop stop-opacity="1" stop-color="rgb(94.465637%, 41.31012%, 33.618164%)" offset="0.398438"/><stop stop-opacity="1" stop-color="rgb(94.346619%, 41.044617%, 33.422852%)" offset="0.402344"/><stop stop-opacity="1" stop-color="rgb(94.229126%, 40.779114%, 33.229065%)" offset="0.40625"/><stop stop-opacity="1" stop-color="rgb(94.110107%, 40.513611%, 33.033752%)" offset="0.410156"/><stop stop-opacity="1" stop-color="rgb(93.992615%, 40.248108%, 32.839966%)" offset="0.414063"/><stop stop-opacity="1" stop-color="rgb(93.873596%, 39.982605%, 32.644653%)" offset="0.417969"/><stop stop-opacity="1" stop-color="rgb(93.754578%, 39.718628%, 32.450867%)" offset="0.421875"/><stop stop-opacity="1" stop-color="rgb(93.635559%, 39.453125%, 32.255554%)" offset="0.425781"/><stop stop-opacity="1" stop-color="rgb(93.518066%, 39.187622%, 32.061768%)" offset="0.429688"/><stop stop-opacity="1" stop-color="rgb(93.399048%, 38.922119%, 31.867981%)" offset="0.433594"/><stop stop-opacity="1" stop-color="rgb(93.281555%, 38.658142%, 31.674194%)" offset="0.4375"/><stop stop-opacity="1" stop-color="rgb(93.162537%, 38.392639%, 31.478882%)" offset="0.441406"/><stop stop-opacity="1" stop-color="rgb(93.045044%, 38.127136%, 31.285095%)" offset="0.445313"/><stop stop-opacity="1" stop-color="rgb(92.926025%, 37.861633%, 31.089783%)" offset="0.449219"/><stop stop-opacity="1" stop-color="rgb(92.807007%, 37.59613%, 30.895996%)" offset="0.453125"/><stop stop-opacity="1" stop-color="rgb(92.687988%, 37.330627%, 30.700684%)" offset="0.457031"/><stop stop-opacity="1" stop-color="rgb(92.570496%, 37.06665%, 30.506897%)" offset="0.460938"/><stop stop-opacity="1" stop-color="rgb(92.451477%, 36.801147%, 30.311584%)" offset="0.464844"/><stop stop-opacity="1" stop-color="rgb(92.333984%, 36.535645%, 30.117798%)" offset="0.46875"/><stop stop-opacity="1" stop-color="rgb(92.214966%, 36.270142%, 29.922485%)" offset="0.472656"/><stop stop-opacity="1" stop-color="rgb(92.097473%, 36.004639%, 29.728699%)" offset="0.476563"/><stop stop-opacity="1" stop-color="rgb(91.978455%, 35.739136%, 29.534912%)" offset="0.480469"/><stop stop-opacity="1" stop-color="rgb(91.859436%, 35.475159%, 29.341125%)" offset="0.484375"/><stop stop-opacity="1" stop-color="rgb(91.740417%, 35.209656%, 29.145813%)" offset="0.488281"/><stop stop-opacity="1" stop-color="rgb(91.622925%, 34.944153%, 28.952026%)" offset="0.492187"/><stop stop-opacity="1" stop-color="rgb(91.503906%, 34.67865%, 28.756714%)" offset="0.496094"/><stop stop-opacity="1" stop-color="rgb(91.386414%, 34.413147%, 28.562927%)" offset="0.5"/><stop stop-opacity="1" stop-color="rgb(91.267395%, 34.147644%, 28.367615%)" offset="0.503906"/><stop stop-opacity="1" stop-color="rgb(91.149902%, 33.883667%, 28.173828%)" offset="0.507812"/><stop stop-opacity="1" stop-color="rgb(91.030884%, 33.618164%, 27.978516%)" offset="0.511719"/><stop stop-opacity="1" stop-color="rgb(90.911865%, 33.352661%, 27.784729%)" offset="0.515625"/><stop stop-opacity="1" stop-color="rgb(90.792847%, 33.087158%, 27.589417%)" offset="0.519531"/><stop stop-opacity="1" stop-color="rgb(90.675354%, 32.823181%, 27.39563%)" offset="0.523438"/><stop stop-opacity="1" stop-color="rgb(90.556335%, 32.557678%, 27.201843%)" offset="0.527344"/><stop stop-opacity="1" stop-color="rgb(90.438843%, 32.292175%, 27.008057%)" offset="0.53125"/><stop stop-opacity="1" stop-color="rgb(90.319824%, 32.026672%, 26.812744%)" offset="0.535156"/><stop stop-opacity="1" stop-color="rgb(90.202332%, 31.761169%, 26.618958%)" offset="0.539062"/><stop stop-opacity="1" stop-color="rgb(90.083313%, 31.495667%, 26.423645%)" offset="0.542969"/><stop stop-opacity="1" stop-color="rgb(89.964294%, 31.231689%, 26.229858%)" offset="0.546875"/><stop stop-opacity="1" stop-color="rgb(89.845276%, 30.966187%, 26.034546%)" offset="0.550781"/><stop stop-opacity="1" stop-color="rgb(89.727783%, 30.700684%, 25.840759%)" offset="0.554688"/><stop stop-opacity="1" stop-color="rgb(89.608765%, 30.435181%, 25.645447%)" offset="0.558594"/><stop stop-opacity="1" stop-color="rgb(89.491272%, 30.169678%, 25.45166%)" offset="0.5625"/><stop stop-opacity="1" stop-color="rgb(89.372253%, 29.904175%, 25.257874%)" offset="0.566406"/><stop stop-opacity="1" stop-color="rgb(89.254761%, 29.640198%, 25.064087%)" offset="0.570312"/><stop stop-opacity="1" stop-color="rgb(89.135742%, 29.374695%, 24.868774%)" offset="0.574219"/><stop stop-opacity="1" stop-color="rgb(89.016724%, 29.109192%, 24.674988%)" offset="0.578125"/><stop stop-opacity="1" stop-color="rgb(88.897705%, 28.843689%, 24.479675%)" offset="0.582031"/><stop stop-opacity="1" stop-color="rgb(88.780212%, 28.578186%, 24.285889%)" offset="0.585938"/><stop stop-opacity="1" stop-color="rgb(88.661194%, 28.312683%, 24.090576%)" offset="0.589844"/><stop stop-opacity="1" stop-color="rgb(88.543701%, 28.048706%, 23.89679%)" offset="0.59375"/><stop stop-opacity="1" stop-color="rgb(88.424683%, 27.783203%, 23.701477%)" offset="0.597656"/><stop stop-opacity="1" stop-color="rgb(88.30719%, 27.5177%, 23.50769%)" offset="0.601562"/><stop stop-opacity="1" stop-color="rgb(88.188171%, 27.252197%, 23.312378%)" offset="0.605469"/><stop stop-opacity="1" stop-color="rgb(88.069153%, 26.986694%, 23.118591%)" offset="0.609375"/><stop stop-opacity="1" stop-color="rgb(87.950134%, 26.721191%, 22.924805%)" offset="0.613281"/><stop stop-opacity="1" stop-color="rgb(87.832642%, 26.457214%, 22.731018%)" offset="0.617188"/><stop stop-opacity="1" stop-color="rgb(87.713623%, 26.191711%, 22.535706%)" offset="0.621094"/><stop stop-opacity="1" stop-color="rgb(87.59613%, 25.926208%, 22.341919%)" offset="0.625"/><stop stop-opacity="1" stop-color="rgb(87.477112%, 25.660706%, 22.146606%)" offset="0.628906"/><stop stop-opacity="1" stop-color="rgb(87.359619%, 25.396729%, 21.95282%)" offset="0.632812"/><stop stop-opacity="1" stop-color="rgb(87.240601%, 25.131226%, 21.757507%)" offset="0.636719"/><stop stop-opacity="1" stop-color="rgb(87.121582%, 24.865723%, 21.563721%)" offset="0.640625"/><stop stop-opacity="1" stop-color="rgb(87.002563%, 24.60022%, 21.368408%)" offset="0.644531"/><stop stop-opacity="1" stop-color="rgb(86.885071%, 24.334717%, 21.174622%)" offset="0.648438"/><stop stop-opacity="1" stop-color="rgb(86.766052%, 24.069214%, 20.979309%)" offset="0.652344"/><stop stop-opacity="1" stop-color="rgb(86.64856%, 23.805237%, 20.785522%)" offset="0.65625"/><stop stop-opacity="1" stop-color="rgb(86.529541%, 23.539734%, 20.591736%)" offset="0.660156"/><stop stop-opacity="1" stop-color="rgb(86.412048%, 23.274231%, 20.397949%)" offset="0.664062"/><stop stop-opacity="1" stop-color="rgb(86.29303%, 23.008728%, 20.202637%)" offset="0.667969"/><stop stop-opacity="1" stop-color="rgb(86.174011%, 22.743225%, 20.00885%)" offset="0.671875"/><stop stop-opacity="1" stop-color="rgb(86.054993%, 22.477722%, 19.813538%)" offset="0.675781"/><stop stop-opacity="1" stop-color="rgb(85.9375%, 22.213745%, 19.619751%)" offset="0.679688"/><stop stop-opacity="1" stop-color="rgb(85.818481%, 21.948242%, 19.424438%)" offset="0.683594"/><stop stop-opacity="1" stop-color="rgb(85.700989%, 21.682739%, 19.230652%)" offset="0.6875"/><stop stop-opacity="1" stop-color="rgb(85.58197%, 21.417236%, 19.035339%)" offset="0.691406"/><stop stop-opacity="1" stop-color="rgb(85.464478%, 21.151733%, 18.841553%)" offset="0.695312"/><stop stop-opacity="1" stop-color="rgb(85.345459%, 20.88623%, 18.647766%)" offset="0.699219"/><stop stop-opacity="1" stop-color="rgb(85.22644%, 20.622253%, 18.453979%)" offset="0.703125"/><stop stop-opacity="1" stop-color="rgb(85.107422%, 20.35675%, 18.258667%)" offset="0.707031"/><stop stop-opacity="1" stop-color="rgb(84.989929%, 20.091248%, 18.06488%)" offset="0.710938"/><stop stop-opacity="1" stop-color="rgb(84.870911%, 19.825745%, 17.869568%)" offset="0.714844"/><stop stop-opacity="1" stop-color="rgb(84.753418%, 19.561768%, 17.675781%)" offset="0.71875"/><stop stop-opacity="1" stop-color="rgb(84.634399%, 19.296265%, 17.480469%)" offset="0.722656"/><stop stop-opacity="1" stop-color="rgb(84.516907%, 19.030762%, 17.286682%)" offset="0.726562"/><stop stop-opacity="1" stop-color="rgb(84.397888%, 18.765259%, 17.09137%)" offset="0.730469"/><stop stop-opacity="1" stop-color="rgb(84.27887%, 18.499756%, 16.897583%)" offset="0.734375"/><stop stop-opacity="1" stop-color="rgb(84.159851%, 18.234253%, 16.702271%)" offset="0.738281"/><stop stop-opacity="1" stop-color="rgb(84.042358%, 17.970276%, 16.508484%)" offset="0.742188"/><stop stop-opacity="1" stop-color="rgb(83.92334%, 17.704773%, 16.314697%)" offset="0.746094"/><stop stop-opacity="1" stop-color="rgb(83.805847%, 17.43927%, 16.120911%)" offset="0.75"/><stop stop-opacity="1" stop-color="rgb(83.686829%, 17.173767%, 15.925598%)" offset="0.753906"/><stop stop-opacity="1" stop-color="rgb(83.56781%, 16.908264%, 15.731812%)" offset="0.757812"/><stop stop-opacity="1" stop-color="rgb(83.448792%, 16.642761%, 15.536499%)" offset="0.761719"/><stop stop-opacity="1" stop-color="rgb(83.331299%, 16.378784%, 15.342712%)" offset="0.765625"/><stop stop-opacity="1" stop-color="rgb(83.21228%, 16.113281%, 15.1474%)" offset="0.769531"/><stop stop-opacity="1" stop-color="rgb(83.094788%, 15.847778%, 14.953613%)" offset="0.773437"/><stop stop-opacity="1" stop-color="rgb(82.975769%, 15.582275%, 14.758301%)" offset="0.777344"/><stop stop-opacity="1" stop-color="rgb(82.858276%, 15.316772%, 14.564514%)" offset="0.78125"/><stop stop-opacity="1" stop-color="rgb(82.739258%, 15.05127%, 14.369202%)" offset="0.785156"/><stop stop-opacity="1" stop-color="rgb(82.620239%, 14.787292%, 14.175415%)" offset="0.789062"/><stop stop-opacity="1" stop-color="rgb(82.501221%, 14.52179%, 13.981628%)" offset="0.792969"/><stop stop-opacity="1" stop-color="rgb(82.383728%, 14.256287%, 13.787842%)" offset="0.796875"/><stop stop-opacity="1" stop-color="rgb(82.264709%, 13.990784%, 13.592529%)" offset="0.800781"/><stop stop-opacity="1" stop-color="rgb(82.147217%, 13.726807%, 13.398743%)" offset="0.804687"/><stop stop-opacity="1" stop-color="rgb(82.028198%, 13.461304%, 13.20343%)" offset="0.808594"/><stop stop-opacity="1" stop-color="rgb(81.910706%, 13.195801%, 13.009644%)" offset="0.8125"/><stop stop-opacity="1" stop-color="rgb(81.791687%, 12.930298%, 12.814331%)" offset="0.816406"/><stop stop-opacity="1" stop-color="rgb(81.672668%, 12.664795%, 12.620544%)" offset="0.820312"/><stop stop-opacity="1" stop-color="rgb(81.636047%, 12.582397%, 12.559509%)" offset="0.828125"/><stop stop-opacity="1" stop-color="rgb(81.599426%, 12.5%, 12.5%)" offset="0.84375"/><stop stop-opacity="1" stop-color="rgb(81.599426%, 12.5%, 12.5%)" offset="0.875"/><stop stop-opacity="1" stop-color="rgb(81.599426%, 12.5%, 12.5%)" offset="1"/></linearGradient></defs><g clip-path="url(#8f56774d98)"><g clip-path="url(#46ad288b14)"><path fill="url(#0038f3f655)" d="M 33.753906 7.515625 L 33.753906 21.488281 L 47.726562 21.488281 L 47.726562 7.515625 Z M 33.753906 7.515625 " fill-rule="nonzero"/></g></g><g fill="#ffffff" fill-opacity="1"><g transform="translate(49.293988, 17.211044)"><g><path d="M 2.453125 0.0625 C 2.023438 0.0625 1.644531 -0.0234375 1.3125 -0.203125 C 0.976562 -0.378906 0.710938 -0.625 0.515625 -0.9375 C 0.328125 -1.257812 0.234375 -1.617188 0.234375 -2.015625 C 0.234375 -2.410156 0.328125 -2.765625 0.515625 -3.078125 C 0.710938 -3.398438 0.976562 -3.648438 1.3125 -3.828125 C 1.644531 -4.003906 2.023438 -4.09375 2.453125 -4.09375 C 2.878906 -4.09375 3.257812 -4.003906 3.59375 -3.828125 C 3.925781 -3.648438 4.1875 -3.398438 4.375 -3.078125 C 4.5625 -2.765625 4.65625 -2.410156 4.65625 -2.015625 C 4.65625 -1.617188 4.5625 -1.257812 4.375 -0.9375 C 4.1875 -0.625 3.925781 -0.378906 3.59375 -0.203125 C 3.257812 -0.0234375 2.878906 0.0625 2.453125 0.0625 Z M 2.453125 -0.890625 C 2.753906 -0.890625 3 -0.988281 3.1875 -1.1875 C 3.382812 -1.394531 3.484375 -1.671875 3.484375 -2.015625 C 3.484375 -2.347656 3.382812 -2.613281 3.1875 -2.8125 C 3 -3.019531 2.753906 -3.125 2.453125 -3.125 C 2.148438 -3.125 1.898438 -3.019531 1.703125 -2.8125 C 1.515625 -2.613281 1.421875 -2.347656 1.421875 -2.015625 C 1.421875 -1.671875 1.515625 -1.394531 1.703125 -1.1875 C 1.898438 -0.988281 2.148438 -0.890625 2.453125 -0.890625 Z M 2.453125 -0.890625 "/></g></g></g><g fill="#ffffff" fill-opacity="1"><g transform="translate(54.193152, 17.211044)"><g><path d="M 2.453125 0.0625 C 2.023438 0.0625 1.644531 -0.0234375 1.3125 -0.203125 C 0.976562 -0.378906 0.710938 -0.625 0.515625 -0.9375 C 0.328125 -1.257812 0.234375 -1.617188 0.234375 -2.015625 C 0.234375 -2.410156 0.328125 -2.765625 0.515625 -3.078125 C 0.710938 -3.398438 0.976562 -3.648438 1.3125 -3.828125 C 1.644531 -4.003906 2.023438 -4.09375 2.453125 -4.09375 C 2.878906 -4.09375 3.257812 -4.003906 3.59375 -3.828125 C 3.925781 -3.648438 4.1875 -3.398438 4.375 -3.078125 C 4.5625 -2.765625 4.65625 -2.410156 4.65625 -2.015625 C 4.65625 -1.617188 4.5625 -1.257812 4.375 -0.9375 C 4.1875 -0.625 3.925781 -0.378906 3.59375 -0.203125 C 3.257812 -0.0234375 2.878906 0.0625 2.453125 0.0625 Z M 2.453125 -0.890625 C 2.753906 -0.890625 3 -0.988281 3.1875 -1.1875 C 3.382812 -1.394531 3.484375 -1.671875 3.484375 -2.015625 C 3.484375 -2.347656 3.382812 -2.613281 3.1875 -2.8125 C 3 -3.019531 2.753906 -3.125 2.453125 -3.125 C 2.148438 -3.125 1.898438 -3.019531 1.703125 -2.8125 C 1.515625 -2.613281 1.421875 -2.347656 1.421875 -2.015625 C 1.421875 -1.671875 1.515625 -1.394531 1.703125 -1.1875 C 1.898438 -0.988281 2.148438 -0.890625 2.453125 -0.890625 Z M 2.453125 -0.890625 "/></g></g></g><g fill="#ffffff" fill-opacity="1"><g transform="translate(59.092317, 17.211044)"><g><path d="M 4.53125 -4.03125 L 2.71875 0.25 C 2.53125 0.707031 2.300781 1.03125 2.03125 1.21875 C 1.757812 1.414062 1.429688 1.515625 1.046875 1.515625 C 0.835938 1.515625 0.628906 1.476562 0.421875 1.40625 C 0.222656 1.34375 0.0546875 1.253906 -0.078125 1.140625 L 0.359375 0.3125 C 0.441406 0.394531 0.539062 0.457031 0.65625 0.5 C 0.78125 0.539062 0.898438 0.5625 1.015625 0.5625 C 1.171875 0.5625 1.296875 0.523438 1.390625 0.453125 C 1.492188 0.378906 1.585938 0.25 1.671875 0.0625 L 1.6875 0.03125 L -0.0625 -4.03125 L 1.140625 -4.03125 L 2.28125 -1.296875 L 3.40625 -4.03125 Z M 4.53125 -4.03125 "/></g></g></g><g fill="#ffffff" fill-opacity="1"><g transform="translate(63.56514, 17.211044)"><g><path d="M 4.484375 -2 C 4.484375 -1.976562 4.472656 -1.875 4.453125 -1.6875 L 1.421875 -1.6875 C 1.472656 -1.4375 1.597656 -1.238281 1.796875 -1.09375 C 2.003906 -0.945312 2.257812 -0.875 2.5625 -0.875 C 2.769531 -0.875 2.957031 -0.90625 3.125 -0.96875 C 3.289062 -1.03125 3.441406 -1.128906 3.578125 -1.265625 L 4.203125 -0.59375 C 3.816406 -0.15625 3.257812 0.0625 2.53125 0.0625 C 2.082031 0.0625 1.679688 -0.0234375 1.328125 -0.203125 C 0.984375 -0.378906 0.710938 -0.625 0.515625 -0.9375 C 0.328125 -1.257812 0.234375 -1.617188 0.234375 -2.015625 C 0.234375 -2.410156 0.328125 -2.765625 0.515625 -3.078125 C 0.703125 -3.398438 0.957031 -3.648438 1.28125 -3.828125 C 1.613281 -4.003906 1.984375 -4.09375 2.390625 -4.09375 C 2.785156 -4.09375 3.140625 -4.003906 3.453125 -3.828125 C 3.773438 -3.660156 4.023438 -3.414062 4.203125 -3.09375 C 4.390625 -2.78125 4.484375 -2.414062 4.484375 -2 Z M 2.390625 -3.203125 C 2.128906 -3.203125 1.90625 -3.125 1.71875 -2.96875 C 1.539062 -2.820312 1.4375 -2.617188 1.40625 -2.359375 L 3.390625 -2.359375 C 3.347656 -2.617188 3.234375 -2.820312 3.046875 -2.96875 C 2.867188 -3.125 2.648438 -3.203125 2.390625 -3.203125 Z M 2.390625 -3.203125 "/></g></g></g><g fill="#ffffff" fill-opacity="1"><g transform="translate(68.284793, 17.211044)"><g><path d="M 0.984375 0.0625 C 0.773438 0.0625 0.597656 -0.00390625 0.453125 -0.140625 C 0.316406 -0.285156 0.25 -0.460938 0.25 -0.671875 C 0.25 -0.890625 0.316406 -1.0625 0.453125 -1.1875 C 0.597656 -1.320312 0.773438 -1.390625 0.984375 -1.390625 C 1.179688 -1.390625 1.347656 -1.320312 1.484375 -1.1875 C 1.628906 -1.0625 1.703125 -0.890625 1.703125 -0.671875 C 1.703125 -0.460938 1.628906 -0.285156 1.484375 -0.140625 C 1.347656 -0.00390625 1.179688 0.0625 0.984375 0.0625 Z M 0.984375 0.0625 "/></g></g></g><g fill="#ffffff" fill-opacity="1"><g transform="translate(70.244459, 17.211044)"><g><path d="M 0.53125 -5.546875 L 1.703125 -5.546875 L 1.703125 0 L 0.53125 0 Z M 0.53125 -5.546875 "/></g></g></g><g fill="#ffffff" fill-opacity="1"><g transform="translate(72.49583, 17.211044)"><g><path d="M 2.15625 -4.09375 C 2.78125 -4.09375 3.257812 -3.941406 3.59375 -3.640625 C 3.925781 -3.347656 4.09375 -2.898438 4.09375 -2.296875 L 4.09375 0 L 3.015625 0 L 3.015625 -0.5 C 2.785156 -0.125 2.375 0.0625 1.78125 0.0625 C 1.46875 0.0625 1.195312 0.0078125 0.96875 -0.09375 C 0.75 -0.195312 0.578125 -0.34375 0.453125 -0.53125 C 0.335938 -0.71875 0.28125 -0.925781 0.28125 -1.15625 C 0.28125 -1.53125 0.421875 -1.820312 0.703125 -2.03125 C 0.984375 -2.25 1.414062 -2.359375 2 -2.359375 L 2.9375 -2.359375 C 2.9375 -2.617188 2.859375 -2.816406 2.703125 -2.953125 C 2.546875 -3.085938 2.3125 -3.15625 2 -3.15625 C 1.789062 -3.15625 1.582031 -3.117188 1.375 -3.046875 C 1.164062 -2.984375 0.988281 -2.894531 0.84375 -2.78125 L 0.421875 -3.59375 C 0.640625 -3.75 0.898438 -3.867188 1.203125 -3.953125 C 1.515625 -4.046875 1.832031 -4.09375 2.15625 -4.09375 Z M 2.078125 -0.71875 C 2.273438 -0.71875 2.453125 -0.765625 2.609375 -0.859375 C 2.765625 -0.953125 2.875 -1.085938 2.9375 -1.265625 L 2.9375 -1.6875 L 2.140625 -1.6875 C 1.660156 -1.6875 1.421875 -1.53125 1.421875 -1.21875 C 1.421875 -1.0625 1.476562 -0.9375 1.59375 -0.84375 C 1.707031 -0.757812 1.867188 -0.71875 2.078125 -0.71875 Z M 2.078125 -0.71875 "/></g></g></g><g fill="#ffffff" fill-opacity="1"><g transform="translate(77.110767, 17.211044)"><g><path d="M 2.921875 -4.09375 C 3.296875 -4.09375 3.632812 -4.003906 3.9375 -3.828125 C 4.25 -3.648438 4.488281 -3.40625 4.65625 -3.09375 C 4.832031 -2.789062 4.921875 -2.429688 4.921875 -2.015625 C 4.921875 -1.597656 4.832031 -1.234375 4.65625 -0.921875 C 4.488281 -0.609375 4.25 -0.363281 3.9375 -0.1875 C 3.632812 -0.0195312 3.296875 0.0625 2.921875 0.0625 C 2.367188 0.0625 1.945312 -0.113281 1.65625 -0.46875 L 1.65625 0 L 0.53125 0 L 0.53125 -5.546875 L 1.703125 -5.546875 L 1.703125 -3.59375 C 1.992188 -3.925781 2.398438 -4.09375 2.921875 -4.09375 Z M 2.71875 -0.890625 C 3.019531 -0.890625 3.265625 -0.988281 3.453125 -1.1875 C 3.648438 -1.394531 3.75 -1.671875 3.75 -2.015625 C 3.75 -2.347656 3.648438 -2.613281 3.453125 -2.8125 C 3.265625 -3.019531 3.019531 -3.125 2.71875 -3.125 C 2.414062 -3.125 2.164062 -3.019531 1.96875 -2.8125 C 1.78125 -2.613281 1.6875 -2.347656 1.6875 -2.015625 C 1.6875 -1.671875 1.78125 -1.394531 1.96875 -1.1875 C 2.164062 -0.988281 2.414062 -0.890625 2.71875 -0.890625 Z M 2.71875 -0.890625 "/></g></g></g><g fill="#ffffff" fill-opacity="1"><g transform="translate(82.271716, 17.211044)"><g><path d="M 1.890625 0.0625 C 1.554688 0.0625 1.226562 0.0195312 0.90625 -0.0625 C 0.59375 -0.144531 0.34375 -0.25 0.15625 -0.375 L 0.53125 -1.21875 C 0.71875 -1.101562 0.9375 -1.007812 1.1875 -0.9375 C 1.445312 -0.863281 1.695312 -0.828125 1.9375 -0.828125 C 2.425781 -0.828125 2.671875 -0.945312 2.671875 -1.1875 C 2.671875 -1.300781 2.601562 -1.382812 2.46875 -1.4375 C 2.34375 -1.488281 2.140625 -1.53125 1.859375 -1.5625 C 1.523438 -1.613281 1.25 -1.671875 1.03125 -1.734375 C 0.820312 -1.796875 0.640625 -1.910156 0.484375 -2.078125 C 0.328125 -2.242188 0.25 -2.476562 0.25 -2.78125 C 0.25 -3.039062 0.320312 -3.265625 0.46875 -3.453125 C 0.613281 -3.648438 0.828125 -3.804688 1.109375 -3.921875 C 1.390625 -4.035156 1.722656 -4.09375 2.109375 -4.09375 C 2.390625 -4.09375 2.671875 -4.0625 2.953125 -4 C 3.242188 -3.9375 3.476562 -3.847656 3.65625 -3.734375 L 3.265625 -2.90625 C 2.910156 -3.101562 2.523438 -3.203125 2.109375 -3.203125 C 1.859375 -3.203125 1.671875 -3.164062 1.546875 -3.09375 C 1.421875 -3.03125 1.359375 -2.941406 1.359375 -2.828125 C 1.359375 -2.703125 1.425781 -2.613281 1.5625 -2.5625 C 1.695312 -2.519531 1.910156 -2.472656 2.203125 -2.421875 C 2.535156 -2.367188 2.804688 -2.3125 3.015625 -2.25 C 3.222656 -2.1875 3.40625 -2.070312 3.5625 -1.90625 C 3.71875 -1.738281 3.796875 -1.507812 3.796875 -1.21875 C 3.796875 -0.96875 3.71875 -0.742188 3.5625 -0.546875 C 3.414062 -0.359375 3.195312 -0.207031 2.90625 -0.09375 C 2.625 0.0078125 2.285156 0.0625 1.890625 0.0625 Z M 1.890625 0.0625 "/></g></g></g></svg>