<svg xmlns="http://www.w3.org/2000/svg" xmlns:xlink="http://www.w3.org/1999/xlink" width="1080" zoomAndPan="magnify" viewBox="0 0 810 809.999993" height="1080" preserveAspectRatio="xMidYMid meet" version="1.0"><defs><g/><clipPath id="48b67a63ea"><path d="M 232.980469 352.390625 L 337.980469 352.390625 L 337.980469 457.390625 L 232.980469 457.390625 Z M 232.980469 352.390625 " clip-rule="nonzero"/></clipPath><clipPath id="73100f3632"><path d="M 285.578125 352.390625 C 256.527344 352.390625 232.980469 375.941406 232.980469 404.992188 C 232.980469 434.042969 256.527344 457.589844 285.578125 457.589844 C 314.628906 457.589844 338.179688 434.042969 338.179688 404.992188 C 338.179688 375.941406 314.628906 352.390625 285.578125 352.390625 Z M 285.578125 431.453125 C 270.96875 431.453125 259.117188 419.609375 259.117188 404.992188 C 259.117188 390.375 270.960938 378.527344 285.578125 378.527344 C 300.191406 378.527344 312.042969 390.375 312.042969 404.992188 C 312.042969 419.609375 300.195312 431.453125 285.578125 431.453125 Z M 285.578125 431.453125 " clip-rule="nonzero"/></clipPath><linearGradient x1="-1.122698" gradientTransform="matrix(0.571178, 0, 0, 0.571178, 232.979371, 352.391767)" y1="1.15072" x2="184.949065" gradientUnits="userSpaceOnUse" y2="182.684252" id="a35f82600a"><stop stop-opacity="1" stop-color="rgb(100%, 53.69873%, 42.698669%)" offset="0"/><stop stop-opacity="1" stop-color="rgb(100%, 53.69873%, 42.698669%)" offset="0.125"/><stop stop-opacity="1" stop-color="rgb(100%, 53.69873%, 42.698669%)" offset="0.1875"/><stop stop-opacity="1" stop-color="rgb(99.957275%, 53.604126%, 42.630005%)" offset="0.21875"/><stop stop-opacity="1" stop-color="rgb(99.795532%, 53.244019%, 42.366028%)" offset="0.222656"/><stop stop-opacity="1" stop-color="rgb(99.67804%, 52.980042%, 42.172241%)" offset="0.226562"/><stop stop-opacity="1" stop-color="rgb(99.559021%, 52.714539%, 41.976929%)" offset="0.230469"/><stop stop-opacity="1" stop-color="rgb(99.441528%, 52.449036%, 41.783142%)" offset="0.234375"/><stop stop-opacity="1" stop-color="rgb(99.32251%, 52.183533%, 41.58783%)" offset="0.238281"/><stop stop-opacity="1" stop-color="rgb(99.203491%, 51.919556%, 41.394043%)" offset="0.242188"/><stop stop-opacity="1" stop-color="rgb(99.084473%, 51.654053%, 41.19873%)" offset="0.246094"/><stop stop-opacity="1" stop-color="rgb(98.96698%, 51.38855%, 41.004944%)" offset="0.25"/><stop stop-opacity="1" stop-color="rgb(98.847961%, 51.123047%, 40.809631%)" offset="0.253906"/><stop stop-opacity="1" stop-color="rgb(98.730469%, 50.857544%, 40.615845%)" offset="0.257812"/><stop stop-opacity="1" stop-color="rgb(98.61145%, 50.592041%, 40.422058%)" offset="0.261719"/><stop stop-opacity="1" stop-color="rgb(98.493958%, 50.328064%, 40.228271%)" offset="0.265625"/><stop stop-opacity="1" stop-color="rgb(98.374939%, 50.062561%, 40.032959%)" offset="0.269531"/><stop stop-opacity="1" stop-color="rgb(98.25592%, 49.797058%, 39.839172%)" offset="0.273438"/><stop stop-opacity="1" stop-color="rgb(98.136902%, 49.531555%, 39.64386%)" offset="0.277344"/><stop stop-opacity="1" stop-color="rgb(98.019409%, 49.266052%, 39.450073%)" offset="0.28125"/><stop stop-opacity="1" stop-color="rgb(97.900391%, 49.000549%, 39.254761%)" offset="0.285156"/><stop stop-opacity="1" stop-color="rgb(97.782898%, 48.736572%, 39.060974%)" offset="0.289062"/><stop stop-opacity="1" stop-color="rgb(97.663879%, 48.471069%, 38.865662%)" offset="0.292969"/><stop stop-opacity="1" stop-color="rgb(97.546387%, 48.205566%, 38.671875%)" offset="0.296875"/><stop stop-opacity="1" stop-color="rgb(97.427368%, 47.940063%, 38.476562%)" offset="0.300781"/><stop stop-opacity="1" stop-color="rgb(97.30835%, 47.674561%, 38.282776%)" offset="0.304687"/><stop stop-opacity="1" stop-color="rgb(97.189331%, 47.409058%, 38.088989%)" offset="0.308594"/><stop stop-opacity="1" stop-color="rgb(97.071838%, 47.145081%, 37.895203%)" offset="0.3125"/><stop stop-opacity="1" stop-color="rgb(96.95282%, 46.879578%, 37.69989%)" offset="0.316406"/><stop stop-opacity="1" stop-color="rgb(96.835327%, 46.614075%, 37.506104%)" offset="0.320312"/><stop stop-opacity="1" stop-color="rgb(96.716309%, 46.348572%, 37.310791%)" offset="0.324219"/><stop stop-opacity="1" stop-color="rgb(96.598816%, 46.083069%, 37.117004%)" offset="0.328125"/><stop stop-opacity="1" stop-color="rgb(96.479797%, 45.817566%, 36.921692%)" offset="0.332031"/><stop stop-opacity="1" stop-color="rgb(96.360779%, 45.553589%, 36.727905%)" offset="0.335938"/><stop stop-opacity="1" stop-color="rgb(96.24176%, 45.288086%, 36.532593%)" offset="0.339844"/><stop stop-opacity="1" stop-color="rgb(96.124268%, 45.022583%, 36.338806%)" offset="0.34375"/><stop stop-opacity="1" stop-color="rgb(96.005249%, 44.75708%, 36.14502%)" offset="0.347656"/><stop stop-opacity="1" stop-color="rgb(95.887756%, 44.493103%, 35.951233%)" offset="0.351562"/><stop stop-opacity="1" stop-color="rgb(95.768738%, 44.2276%, 35.75592%)" offset="0.355469"/><stop stop-opacity="1" stop-color="rgb(95.651245%, 43.962097%, 35.562134%)" offset="0.359375"/><stop stop-opacity="1" stop-color="rgb(95.532227%, 43.696594%, 35.366821%)" offset="0.363281"/><stop stop-opacity="1" stop-color="rgb(95.413208%, 43.431091%, 35.173035%)" offset="0.367187"/><stop stop-opacity="1" stop-color="rgb(95.294189%, 43.165588%, 34.977722%)" offset="0.371094"/><stop stop-opacity="1" stop-color="rgb(95.176697%, 42.901611%, 34.783936%)" offset="0.375"/><stop stop-opacity="1" stop-color="rgb(95.057678%, 42.636108%, 34.588623%)" offset="0.378906"/><stop stop-opacity="1" stop-color="rgb(94.940186%, 42.370605%, 34.394836%)" offset="0.382812"/><stop stop-opacity="1" stop-color="rgb(94.821167%, 42.105103%, 34.199524%)" offset="0.386719"/><stop stop-opacity="1" stop-color="rgb(94.703674%, 41.8396%, 34.005737%)" offset="0.390625"/><stop stop-opacity="1" stop-color="rgb(94.584656%, 41.574097%, 33.811951%)" offset="0.394531"/><stop stop-opacity="1" stop-color="rgb(94.465637%, 41.31012%, 33.618164%)" offset="0.398437"/><stop stop-opacity="1" stop-color="rgb(94.346619%, 41.044617%, 33.422852%)" offset="0.402344"/><stop stop-opacity="1" stop-color="rgb(94.229126%, 40.779114%, 33.229065%)" offset="0.40625"/><stop stop-opacity="1" stop-color="rgb(94.110107%, 40.513611%, 33.033752%)" offset="0.410156"/><stop stop-opacity="1" stop-color="rgb(93.992615%, 40.248108%, 32.839966%)" offset="0.414062"/><stop stop-opacity="1" stop-color="rgb(93.873596%, 39.982605%, 32.644653%)" offset="0.417969"/><stop stop-opacity="1" stop-color="rgb(93.756104%, 39.718628%, 32.450867%)" offset="0.421875"/><stop stop-opacity="1" stop-color="rgb(93.637085%, 39.453125%, 32.255554%)" offset="0.425781"/><stop stop-opacity="1" stop-color="rgb(93.518066%, 39.187622%, 32.061768%)" offset="0.429688"/><stop stop-opacity="1" stop-color="rgb(93.399048%, 38.922119%, 31.867981%)" offset="0.433594"/><stop stop-opacity="1" stop-color="rgb(93.281555%, 38.658142%, 31.674194%)" offset="0.4375"/><stop stop-opacity="1" stop-color="rgb(93.162537%, 38.392639%, 31.478882%)" offset="0.441406"/><stop stop-opacity="1" stop-color="rgb(93.045044%, 38.127136%, 31.285095%)" offset="0.445312"/><stop stop-opacity="1" stop-color="rgb(92.926025%, 37.861633%, 31.089783%)" offset="0.449219"/><stop stop-opacity="1" stop-color="rgb(92.807007%, 37.59613%, 30.895996%)" offset="0.453125"/><stop stop-opacity="1" stop-color="rgb(92.687988%, 37.330627%, 30.700684%)" offset="0.457031"/><stop stop-opacity="1" stop-color="rgb(92.570496%, 37.06665%, 30.506897%)" offset="0.460937"/><stop stop-opacity="1" stop-color="rgb(92.451477%, 36.801147%, 30.311584%)" offset="0.464844"/><stop stop-opacity="1" stop-color="rgb(92.333984%, 36.535645%, 30.117798%)" offset="0.46875"/><stop stop-opacity="1" stop-color="rgb(92.214966%, 36.270142%, 29.922485%)" offset="0.472656"/><stop stop-opacity="1" stop-color="rgb(92.097473%, 36.004639%, 29.728699%)" offset="0.476562"/><stop stop-opacity="1" stop-color="rgb(91.978455%, 35.739136%, 29.534912%)" offset="0.480469"/><stop stop-opacity="1" stop-color="rgb(91.859436%, 35.475159%, 29.341125%)" offset="0.484375"/><stop stop-opacity="1" stop-color="rgb(91.740417%, 35.209656%, 29.145813%)" offset="0.488281"/><stop stop-opacity="1" stop-color="rgb(91.622925%, 34.944153%, 28.952026%)" offset="0.492187"/><stop stop-opacity="1" stop-color="rgb(91.503906%, 34.67865%, 28.756714%)" offset="0.496094"/><stop stop-opacity="1" stop-color="rgb(91.386414%, 34.413147%, 28.562927%)" offset="0.5"/><stop stop-opacity="1" stop-color="rgb(91.267395%, 34.147644%, 28.367615%)" offset="0.503906"/><stop stop-opacity="1" stop-color="rgb(91.149902%, 33.883667%, 28.173828%)" offset="0.507812"/><stop stop-opacity="1" stop-color="rgb(91.030884%, 33.618164%, 27.978516%)" offset="0.511719"/><stop stop-opacity="1" stop-color="rgb(90.911865%, 33.352661%, 27.784729%)" offset="0.515625"/><stop stop-opacity="1" stop-color="rgb(90.792847%, 33.087158%, 27.589417%)" offset="0.519531"/><stop stop-opacity="1" stop-color="rgb(90.675354%, 32.823181%, 27.39563%)" offset="0.523438"/><stop stop-opacity="1" stop-color="rgb(90.556335%, 32.557678%, 27.201843%)" offset="0.527344"/><stop stop-opacity="1" stop-color="rgb(90.438843%, 32.292175%, 27.008057%)" offset="0.53125"/><stop stop-opacity="1" stop-color="rgb(90.319824%, 32.026672%, 26.812744%)" offset="0.535156"/><stop stop-opacity="1" stop-color="rgb(90.202332%, 31.761169%, 26.618958%)" offset="0.539062"/><stop stop-opacity="1" stop-color="rgb(90.083313%, 31.495667%, 26.423645%)" offset="0.542969"/><stop stop-opacity="1" stop-color="rgb(89.964294%, 31.231689%, 26.229858%)" offset="0.546875"/><stop stop-opacity="1" stop-color="rgb(89.845276%, 30.966187%, 26.034546%)" offset="0.550781"/><stop stop-opacity="1" stop-color="rgb(89.727783%, 30.700684%, 25.840759%)" offset="0.554688"/><stop stop-opacity="1" stop-color="rgb(89.608765%, 30.435181%, 25.645447%)" offset="0.558594"/><stop stop-opacity="1" stop-color="rgb(89.491272%, 30.169678%, 25.45166%)" offset="0.5625"/><stop stop-opacity="1" stop-color="rgb(89.372253%, 29.904175%, 25.257874%)" offset="0.566406"/><stop stop-opacity="1" stop-color="rgb(89.254761%, 29.640198%, 25.064087%)" offset="0.570312"/><stop stop-opacity="1" stop-color="rgb(89.135742%, 29.374695%, 24.868774%)" offset="0.574219"/><stop stop-opacity="1" stop-color="rgb(89.016724%, 29.109192%, 24.674988%)" offset="0.578125"/><stop stop-opacity="1" stop-color="rgb(88.897705%, 28.843689%, 24.479675%)" offset="0.582031"/><stop stop-opacity="1" stop-color="rgb(88.780212%, 28.578186%, 24.285889%)" offset="0.585938"/><stop stop-opacity="1" stop-color="rgb(88.661194%, 28.312683%, 24.090576%)" offset="0.589844"/><stop stop-opacity="1" stop-color="rgb(88.543701%, 28.048706%, 23.89679%)" offset="0.59375"/><stop stop-opacity="1" stop-color="rgb(88.424683%, 27.783203%, 23.701477%)" offset="0.597656"/><stop stop-opacity="1" stop-color="rgb(88.30719%, 27.5177%, 23.50769%)" offset="0.601562"/><stop stop-opacity="1" stop-color="rgb(88.188171%, 27.252197%, 23.312378%)" offset="0.605469"/><stop stop-opacity="1" stop-color="rgb(88.069153%, 26.986694%, 23.118591%)" offset="0.609375"/><stop stop-opacity="1" stop-color="rgb(87.950134%, 26.721191%, 22.924805%)" offset="0.613281"/><stop stop-opacity="1" stop-color="rgb(87.832642%, 26.457214%, 22.731018%)" offset="0.617188"/><stop stop-opacity="1" stop-color="rgb(87.713623%, 26.191711%, 22.535706%)" offset="0.621094"/><stop stop-opacity="1" stop-color="rgb(87.59613%, 25.926208%, 22.341919%)" offset="0.625"/><stop stop-opacity="1" stop-color="rgb(87.477112%, 25.660706%, 22.146606%)" offset="0.628906"/><stop stop-opacity="1" stop-color="rgb(87.359619%, 25.396729%, 21.95282%)" offset="0.632812"/><stop stop-opacity="1" stop-color="rgb(87.240601%, 25.131226%, 21.757507%)" offset="0.636719"/><stop stop-opacity="1" stop-color="rgb(87.121582%, 24.865723%, 21.563721%)" offset="0.640625"/><stop stop-opacity="1" stop-color="rgb(87.002563%, 24.60022%, 21.368408%)" offset="0.644531"/><stop stop-opacity="1" stop-color="rgb(86.885071%, 24.334717%, 21.174622%)" offset="0.648438"/><stop stop-opacity="1" stop-color="rgb(86.766052%, 24.069214%, 20.979309%)" offset="0.652344"/><stop stop-opacity="1" stop-color="rgb(86.64856%, 23.805237%, 20.785522%)" offset="0.65625"/><stop stop-opacity="1" stop-color="rgb(86.529541%, 23.539734%, 20.591736%)" offset="0.660156"/><stop stop-opacity="1" stop-color="rgb(86.412048%, 23.274231%, 20.397949%)" offset="0.664062"/><stop stop-opacity="1" stop-color="rgb(86.29303%, 23.008728%, 20.202637%)" offset="0.667969"/><stop stop-opacity="1" stop-color="rgb(86.174011%, 22.743225%, 20.00885%)" offset="0.671875"/><stop stop-opacity="1" stop-color="rgb(86.054993%, 22.477722%, 19.813538%)" offset="0.675781"/><stop stop-opacity="1" stop-color="rgb(85.9375%, 22.213745%, 19.619751%)" offset="0.679687"/><stop stop-opacity="1" stop-color="rgb(85.818481%, 21.948242%, 19.424438%)" offset="0.683594"/><stop stop-opacity="1" stop-color="rgb(85.700989%, 21.682739%, 19.230652%)" offset="0.6875"/><stop stop-opacity="1" stop-color="rgb(85.58197%, 21.417236%, 19.035339%)" offset="0.691406"/><stop stop-opacity="1" stop-color="rgb(85.464478%, 21.151733%, 18.841553%)" offset="0.695312"/><stop stop-opacity="1" stop-color="rgb(85.345459%, 20.88623%, 18.647766%)" offset="0.699219"/><stop stop-opacity="1" stop-color="rgb(85.22644%, 20.622253%, 18.453979%)" offset="0.703125"/><stop stop-opacity="1" stop-color="rgb(85.107422%, 20.35675%, 18.258667%)" offset="0.707031"/><stop stop-opacity="1" stop-color="rgb(84.989929%, 20.091248%, 18.06488%)" offset="0.710938"/><stop stop-opacity="1" stop-color="rgb(84.870911%, 19.825745%, 17.869568%)" offset="0.714844"/><stop stop-opacity="1" stop-color="rgb(84.753418%, 19.561768%, 17.675781%)" offset="0.71875"/><stop stop-opacity="1" stop-color="rgb(84.634399%, 19.296265%, 17.480469%)" offset="0.722656"/><stop stop-opacity="1" stop-color="rgb(84.516907%, 19.030762%, 17.286682%)" offset="0.726562"/><stop stop-opacity="1" stop-color="rgb(84.397888%, 18.765259%, 17.09137%)" offset="0.730469"/><stop stop-opacity="1" stop-color="rgb(84.27887%, 18.499756%, 16.897583%)" offset="0.734375"/><stop stop-opacity="1" stop-color="rgb(84.159851%, 18.234253%, 16.702271%)" offset="0.738281"/><stop stop-opacity="1" stop-color="rgb(84.042358%, 17.970276%, 16.508484%)" offset="0.742188"/><stop stop-opacity="1" stop-color="rgb(83.92334%, 17.704773%, 16.314697%)" offset="0.746094"/><stop stop-opacity="1" stop-color="rgb(83.805847%, 17.43927%, 16.120911%)" offset="0.75"/><stop stop-opacity="1" stop-color="rgb(83.686829%, 17.173767%, 15.925598%)" offset="0.753906"/><stop stop-opacity="1" stop-color="rgb(83.56781%, 16.908264%, 15.731812%)" offset="0.757812"/><stop stop-opacity="1" stop-color="rgb(83.448792%, 16.642761%, 15.536499%)" offset="0.761719"/><stop stop-opacity="1" stop-color="rgb(83.331299%, 16.378784%, 15.342712%)" offset="0.765625"/><stop stop-opacity="1" stop-color="rgb(83.21228%, 16.113281%, 15.1474%)" offset="0.769531"/><stop stop-opacity="1" stop-color="rgb(83.094788%, 15.847778%, 14.953613%)" offset="0.773438"/><stop stop-opacity="1" stop-color="rgb(82.975769%, 15.582275%, 14.758301%)" offset="0.777344"/><stop stop-opacity="1" stop-color="rgb(82.858276%, 15.316772%, 14.564514%)" offset="0.78125"/><stop stop-opacity="1" stop-color="rgb(82.739258%, 15.05127%, 14.370728%)" offset="0.785156"/><stop stop-opacity="1" stop-color="rgb(82.620239%, 14.787292%, 14.176941%)" offset="0.789062"/><stop stop-opacity="1" stop-color="rgb(82.501221%, 14.52179%, 13.981628%)" offset="0.792969"/><stop stop-opacity="1" stop-color="rgb(82.383728%, 14.256287%, 13.787842%)" offset="0.796875"/><stop stop-opacity="1" stop-color="rgb(82.264709%, 13.990784%, 13.592529%)" offset="0.800781"/><stop stop-opacity="1" stop-color="rgb(82.147217%, 13.726807%, 13.398743%)" offset="0.804688"/><stop stop-opacity="1" stop-color="rgb(82.028198%, 13.461304%, 13.20343%)" offset="0.808594"/><stop stop-opacity="1" stop-color="rgb(81.910706%, 13.195801%, 13.009644%)" offset="0.8125"/><stop stop-opacity="1" stop-color="rgb(81.791687%, 12.930298%, 12.814331%)" offset="0.816406"/><stop stop-opacity="1" stop-color="rgb(81.672668%, 12.664795%, 12.620544%)" offset="0.820312"/><stop stop-opacity="1" stop-color="rgb(81.636047%, 12.582397%, 12.559509%)" offset="0.828125"/><stop stop-opacity="1" stop-color="rgb(81.599426%, 12.5%, 12.5%)" offset="0.84375"/><stop stop-opacity="1" stop-color="rgb(81.599426%, 12.5%, 12.5%)" offset="0.875"/><stop stop-opacity="1" stop-color="rgb(81.599426%, 12.5%, 12.5%)" offset="1"/></linearGradient></defs><g clip-path="url(#48b67a63ea)"><g clip-path="url(#73100f3632)"><path fill="url(#a35f82600a)" d="M 232.980469 352.390625 L 232.980469 457.390625 L 337.980469 457.390625 L 337.980469 352.390625 Z M 232.980469 352.390625 " fill-rule="nonzero"/></g></g><g fill="#ffffff" fill-opacity="1"><g transform="translate(349.75484, 425.249999)"><g><path d="M 18.4375 0.453125 C 15.25 0.453125 12.390625 -0.210938 9.859375 -1.546875 C 7.328125 -2.878906 5.347656 -4.722656 3.921875 -7.078125 C 2.503906 -9.441406 1.796875 -12.125 1.796875 -15.125 C 1.796875 -18.113281 2.503906 -20.789062 3.921875 -23.15625 C 5.347656 -25.519531 7.328125 -27.363281 9.859375 -28.6875 C 12.390625 -30.019531 15.25 -30.6875 18.4375 -30.6875 C 21.625 -30.6875 24.472656 -30.019531 26.984375 -28.6875 C 29.492188 -27.363281 31.457031 -25.519531 32.875 -23.15625 C 34.300781 -20.789062 35.015625 -18.113281 35.015625 -15.125 C 35.015625 -12.125 34.300781 -9.441406 32.875 -7.078125 C 31.457031 -4.722656 29.492188 -2.878906 26.984375 -1.546875 C 24.472656 -0.210938 21.625 0.453125 18.4375 0.453125 Z M 18.4375 -6.75 C 20.6875 -6.75 22.53125 -7.503906 23.96875 -9.015625 C 25.414062 -10.535156 26.140625 -12.570312 26.140625 -15.125 C 26.140625 -17.664062 25.414062 -19.695312 23.96875 -21.21875 C 22.53125 -22.738281 20.6875 -23.5 18.4375 -23.5 C 16.1875 -23.5 14.328125 -22.738281 12.859375 -21.21875 C 11.398438 -19.695312 10.671875 -17.664062 10.671875 -15.125 C 10.671875 -12.570312 11.398438 -10.535156 12.859375 -9.015625 C 14.328125 -7.503906 16.1875 -6.75 18.4375 -6.75 Z M 18.4375 -6.75 "/></g></g></g><g fill="#ffffff" fill-opacity="1"><g transform="translate(386.567929, 425.249999)"><g><path d="M 18.4375 0.453125 C 15.25 0.453125 12.390625 -0.210938 9.859375 -1.546875 C 7.328125 -2.878906 5.347656 -4.722656 3.921875 -7.078125 C 2.503906 -9.441406 1.796875 -12.125 1.796875 -15.125 C 1.796875 -18.113281 2.503906 -20.789062 3.921875 -23.15625 C 5.347656 -25.519531 7.328125 -27.363281 9.859375 -28.6875 C 12.390625 -30.019531 15.25 -30.6875 18.4375 -30.6875 C 21.625 -30.6875 24.472656 -30.019531 26.984375 -28.6875 C 29.492188 -27.363281 31.457031 -25.519531 32.875 -23.15625 C 34.300781 -20.789062 35.015625 -18.113281 35.015625 -15.125 C 35.015625 -12.125 34.300781 -9.441406 32.875 -7.078125 C 31.457031 -4.722656 29.492188 -2.878906 26.984375 -1.546875 C 24.472656 -0.210938 21.625 0.453125 18.4375 0.453125 Z M 18.4375 -6.75 C 20.6875 -6.75 22.53125 -7.503906 23.96875 -9.015625 C 25.414062 -10.535156 26.140625 -12.570312 26.140625 -15.125 C 26.140625 -17.664062 25.414062 -19.695312 23.96875 -21.21875 C 22.53125 -22.738281 20.6875 -23.5 18.4375 -23.5 C 16.1875 -23.5 14.328125 -22.738281 12.859375 -21.21875 C 11.398438 -19.695312 10.671875 -17.664062 10.671875 -15.125 C 10.671875 -12.570312 11.398438 -10.535156 12.859375 -9.015625 C 14.328125 -7.503906 16.1875 -6.75 18.4375 -6.75 Z M 18.4375 -6.75 "/></g></g></g><g fill="#ffffff" fill-opacity="1"><g transform="translate(423.381019, 425.249999)"><g><path d="M 34.0625 -30.234375 L 20.40625 1.859375 C 19.019531 5.335938 17.304688 7.789062 15.265625 9.21875 C 13.222656 10.644531 10.757812 11.359375 7.875 11.359375 C 6.300781 11.359375 4.742188 11.113281 3.203125 10.625 C 1.671875 10.132812 0.414062 9.457031 -0.5625 8.59375 L 2.640625 2.359375 C 3.316406 2.960938 4.09375 3.429688 4.96875 3.765625 C 5.851562 4.097656 6.726562 4.265625 7.59375 4.265625 C 8.789062 4.265625 9.765625 3.972656 10.515625 3.390625 C 11.265625 2.816406 11.9375 1.851562 12.53125 0.5 L 12.640625 0.21875 L -0.453125 -30.234375 L 8.59375 -30.234375 L 17.078125 -9.71875 L 25.625 -30.234375 Z M 34.0625 -30.234375 "/></g></g></g><g fill="#ffffff" fill-opacity="1"><g transform="translate(456.990518, 425.249999)"><g><path d="M 33.671875 -15 C 33.671875 -14.894531 33.613281 -14.109375 33.5 -12.640625 L 10.625 -12.640625 C 11.03125 -10.765625 12 -9.285156 13.53125 -8.203125 C 15.070312 -7.117188 16.988281 -6.578125 19.28125 -6.578125 C 20.851562 -6.578125 22.25 -6.8125 23.46875 -7.28125 C 24.6875 -7.75 25.816406 -8.488281 26.859375 -9.5 L 31.53125 -4.4375 C 28.6875 -1.175781 24.523438 0.453125 19.046875 0.453125 C 15.640625 0.453125 12.625 -0.210938 10 -1.546875 C 7.375 -2.878906 5.347656 -4.722656 3.921875 -7.078125 C 2.503906 -9.441406 1.796875 -12.125 1.796875 -15.125 C 1.796875 -18.082031 2.5 -20.75 3.90625 -23.125 C 5.3125 -25.507812 7.238281 -27.363281 9.6875 -28.6875 C 12.144531 -30.019531 14.890625 -30.6875 17.921875 -30.6875 C 20.890625 -30.6875 23.570312 -30.046875 25.96875 -28.765625 C 28.363281 -27.492188 30.242188 -25.671875 31.609375 -23.296875 C 32.984375 -20.921875 33.671875 -18.15625 33.671875 -15 Z M 17.984375 -24.0625 C 15.992188 -24.0625 14.320312 -23.5 12.96875 -22.375 C 11.625 -21.25 10.804688 -19.710938 10.515625 -17.765625 L 25.40625 -17.765625 C 25.101562 -19.671875 24.273438 -21.195312 22.921875 -22.34375 C 21.578125 -23.488281 19.929688 -24.0625 17.984375 -24.0625 Z M 17.984375 -24.0625 "/></g></g></g><g fill="#ffffff" fill-opacity="1"><g transform="translate(492.454727, 425.249999)"><g><path d="M 7.359375 0.453125 C 5.828125 0.453125 4.535156 -0.0703125 3.484375 -1.125 C 2.429688 -2.175781 1.90625 -3.488281 1.90625 -5.0625 C 1.90625 -6.664062 2.429688 -7.960938 3.484375 -8.953125 C 4.535156 -9.953125 5.828125 -10.453125 7.359375 -10.453125 C 8.898438 -10.453125 10.191406 -9.953125 11.234375 -8.953125 C 12.285156 -7.960938 12.8125 -6.664062 12.8125 -5.0625 C 12.8125 -3.488281 12.285156 -2.175781 11.234375 -1.125 C 10.191406 -0.0703125 8.898438 0.453125 7.359375 0.453125 Z M 7.359375 0.453125 "/></g></g></g><g fill="#ffffff" fill-opacity="1"><g transform="translate(507.179965, 425.249999)"><g><path d="M 4.046875 -41.703125 L 12.8125 -41.703125 L 12.8125 0 L 4.046875 0 Z M 4.046875 -41.703125 "/></g></g></g><g fill="#ffffff" fill-opacity="1"><g transform="translate(524.097124, 425.249999)"><g><path d="M 16.25 -30.6875 C 20.925781 -30.6875 24.519531 -29.570312 27.03125 -27.34375 C 29.539062 -25.113281 30.796875 -21.75 30.796875 -17.25 L 30.796875 0 L 22.59375 0 L 22.59375 -3.765625 C 20.945312 -0.953125 17.875 0.453125 13.375 0.453125 C 11.050781 0.453125 9.035156 0.0625 7.328125 -0.71875 C 5.628906 -1.507812 4.328125 -2.597656 3.421875 -3.984375 C 2.523438 -5.367188 2.078125 -6.945312 2.078125 -8.71875 C 2.078125 -11.519531 3.132812 -13.726562 5.25 -15.34375 C 7.375 -16.957031 10.644531 -17.765625 15.0625 -17.765625 L 22.03125 -17.765625 C 22.03125 -19.671875 21.445312 -21.140625 20.28125 -22.171875 C 19.125 -23.203125 17.382812 -23.71875 15.0625 -23.71875 C 13.445312 -23.71875 11.863281 -23.460938 10.3125 -22.953125 C 8.757812 -22.453125 7.4375 -21.769531 6.34375 -20.90625 L 3.203125 -27.03125 C 4.847656 -28.195312 6.820312 -29.097656 9.125 -29.734375 C 11.4375 -30.367188 13.8125 -30.6875 16.25 -30.6875 Z M 15.5625 -5.453125 C 17.0625 -5.453125 18.390625 -5.796875 19.546875 -6.484375 C 20.710938 -7.179688 21.539062 -8.203125 22.03125 -9.546875 L 22.03125 -12.640625 L 16.015625 -12.640625 C 12.421875 -12.640625 10.625 -11.460938 10.625 -9.109375 C 10.625 -7.984375 11.0625 -7.09375 11.9375 -6.4375 C 12.820312 -5.78125 14.03125 -5.453125 15.5625 -5.453125 Z M 15.5625 -5.453125 "/></g></g></g><g fill="#ffffff" fill-opacity="1"><g transform="translate(558.774483, 425.249999)"><g><path d="M 21.921875 -30.6875 C 24.734375 -30.6875 27.289062 -30.039062 29.59375 -28.75 C 31.894531 -27.457031 33.703125 -25.640625 35.015625 -23.296875 C 36.328125 -20.953125 36.984375 -18.226562 36.984375 -15.125 C 36.984375 -12.007812 36.328125 -9.28125 35.015625 -6.9375 C 33.703125 -4.59375 31.894531 -2.773438 29.59375 -1.484375 C 27.289062 -0.191406 24.734375 0.453125 21.921875 0.453125 C 17.765625 0.453125 14.597656 -0.859375 12.421875 -3.484375 L 12.421875 0 L 4.046875 0 L 4.046875 -41.703125 L 12.8125 -41.703125 L 12.8125 -27.03125 C 15.019531 -29.46875 18.054688 -30.6875 21.921875 -30.6875 Z M 20.40625 -6.75 C 22.65625 -6.75 24.5 -7.503906 25.9375 -9.015625 C 27.382812 -10.535156 28.109375 -12.570312 28.109375 -15.125 C 28.109375 -17.664062 27.382812 -19.695312 25.9375 -21.21875 C 24.5 -22.738281 22.65625 -23.5 20.40625 -23.5 C 18.15625 -23.5 16.304688 -22.738281 14.859375 -21.21875 C 13.421875 -19.695312 12.703125 -17.664062 12.703125 -15.125 C 12.703125 -12.570312 13.421875 -10.535156 14.859375 -9.015625 C 16.304688 -7.503906 18.15625 -6.75 20.40625 -6.75 Z M 20.40625 -6.75 "/></g></g></g><g fill="#ffffff" fill-opacity="1"><g transform="translate(597.554663, 425.249999)"><g><path d="M 14.21875 0.453125 C 11.707031 0.453125 9.253906 0.144531 6.859375 -0.46875 C 4.460938 -1.09375 2.550781 -1.875 1.125 -2.8125 L 4.046875 -9.109375 C 5.390625 -8.242188 7.015625 -7.539062 8.921875 -7 C 10.835938 -6.457031 12.71875 -6.1875 14.5625 -6.1875 C 18.269531 -6.1875 20.125 -7.101562 20.125 -8.9375 C 20.125 -9.800781 19.613281 -10.421875 18.59375 -10.796875 C 17.582031 -11.171875 16.03125 -11.488281 13.9375 -11.75 C 11.46875 -12.125 9.425781 -12.550781 7.8125 -13.03125 C 6.195312 -13.519531 4.800781 -14.382812 3.625 -15.625 C 2.445312 -16.863281 1.859375 -18.625 1.859375 -20.90625 C 1.859375 -22.820312 2.410156 -24.519531 3.515625 -26 C 4.617188 -27.476562 6.226562 -28.628906 8.34375 -29.453125 C 10.457031 -30.273438 12.957031 -30.6875 15.84375 -30.6875 C 17.976562 -30.6875 20.101562 -30.453125 22.21875 -29.984375 C 24.34375 -29.515625 26.097656 -28.867188 27.484375 -28.046875 L 24.5625 -21.8125 C 21.90625 -23.3125 19 -24.0625 15.84375 -24.0625 C 13.976562 -24.0625 12.578125 -23.796875 11.640625 -23.265625 C 10.703125 -22.742188 10.234375 -22.070312 10.234375 -21.25 C 10.234375 -20.3125 10.738281 -19.65625 11.75 -19.28125 C 12.757812 -18.90625 14.367188 -18.546875 16.578125 -18.203125 C 19.054688 -17.796875 21.082031 -17.359375 22.65625 -16.890625 C 24.226562 -16.421875 25.59375 -15.566406 26.75 -14.328125 C 27.914062 -13.097656 28.5 -11.375 28.5 -9.15625 C 28.5 -7.28125 27.9375 -5.613281 26.8125 -4.15625 C 25.6875 -2.695312 24.046875 -1.5625 21.890625 -0.75 C 19.734375 0.0507812 17.175781 0.453125 14.21875 0.453125 Z M 14.21875 0.453125 "/></g></g></g></svg>